<svg width="767" height="282" viewBox="0 0 767 282" fill="none" xmlns="http://www.w3.org/2000/svg">
<path d="M221.926 233L196.706 165.66H189.426L177.986 233H120.006L152.506 48.92H228.166C238.219 48.92 247.319 50.0467 255.466 52.3C263.613 54.5533 270.546 57.8467 276.266 62.18C281.986 66.5133 286.319 71.8867 289.266 78.3C292.386 84.54 293.946 91.7333 293.946 99.88C293.946 115.133 290.306 127.7 283.026 137.58C275.919 147.46 266.126 154.22 253.646 157.86L289.526 233H221.926ZM208.666 127.44C216.639 127.44 222.879 126.14 227.386 123.54C231.893 120.767 234.146 116.433 234.146 110.54C234.146 105.167 232.239 101.527 228.426 99.62C224.786 97.54 219.759 96.5 213.346 96.5H202.166L196.706 127.44H208.666Z" fill="black"/>
<path d="M353.772 233L375.092 112.1L340.252 130.82L322.572 85.32L391.472 48.92H446.852L414.352 233H353.772Z" fill="black"/>
<path d="M572.514 44.24C586.207 44.24 597.734 46.32 607.094 50.48C616.454 54.64 623.994 60.1 629.714 66.86C635.607 73.4467 639.767 80.9867 642.193 89.48C644.793 97.9733 646.094 106.467 646.094 114.96C646.094 123.627 645.314 132.64 643.754 142C642.367 151.36 640.114 160.633 636.994 169.82C633.874 178.833 629.8 187.5 624.774 195.82C619.747 203.967 613.68 211.16 606.574 217.4C599.64 223.64 591.494 228.58 582.134 232.22C572.947 235.86 562.46 237.68 550.674 237.68C536.807 237.68 525.107 235.6 515.574 231.44C506.04 227.28 498.327 221.907 492.434 215.32C486.54 208.56 482.294 201.02 479.694 192.7C477.267 184.207 476.053 175.627 476.053 166.96C476.053 158.293 476.747 149.28 478.134 139.92C479.694 130.56 482.034 121.373 485.154 112.36C488.447 103.173 492.607 94.5067 497.634 86.36C502.66 78.04 508.727 70.76 515.833 64.52C522.94 58.28 531.174 53.34 540.534 49.7C549.894 46.06 560.554 44.24 572.514 44.24ZM567.574 94.16C562.547 94.16 558.04 96.3267 554.054 100.66C550.067 104.82 546.687 110.193 543.914 116.78C541.14 123.193 539.06 130.213 537.674 137.84C536.287 145.467 535.594 152.66 535.594 159.42C535.594 167.047 536.98 173.547 539.754 178.92C542.7 184.12 547.207 186.72 553.273 186.72C558.127 186.72 562.46 184.727 566.273 180.74C570.26 176.58 573.64 171.38 576.414 165.14C579.187 158.727 581.267 151.707 582.654 144.08C584.04 136.28 584.734 128.74 584.734 121.46C584.734 113.833 583.433 107.42 580.833 102.22C578.233 96.8466 573.814 94.16 567.574 94.16Z" fill="black"/>
</svg>
