<svg width="528" height="528" viewBox="0 0 528 528" fill="none" xmlns="http://www.w3.org/2000/svg">
<path d="M55.6621 478.042L60.0648 481.779L64.8682 485.108L70.0677 488.022L75.6546 490.511L81.6242 492.562L87.9615 494.175L94.6582 495.343L101.7 496.067L109.075 496.337L116.769 496.156L124.77 495.517L133.066 494.419L141.64 492.859L150.477 490.839L159.557 488.365L168.864 485.441L178.377 482.071L188.078 478.259L197.947 474.012L207.968 469.335L218.115 464.233L228.373 458.719L238.717 452.801L249.126 446.496L259.576 439.816L270.047 432.773L280.516 425.383L290.959 417.656L301.355 409.606L311.682 401.252L321.918 392.616L332.042 383.715L342.029 374.567L351.859 365.193L361.513 355.612L370.962 345.845L380.192 335.91L389.181 325.831L397.913 315.631L406.367 305.328L414.53 294.949L422.38 284.516L429.901 274.049L437.078 263.572L443.893 253.107L450.331 242.677L456.388 232.303L462.052 222.005L467.306 211.809L472.146 201.731L476.558 191.797L480.538 182.026L484.073 172.435L487.161 163.047L489.799 153.879L491.984 144.946L493.716 136.266L494.992 127.859L495.808 119.738L496.168 111.918L496.067 104.419L495.51 97.2505L494.505 90.4212L493.056 83.9496L491.169 77.836L488.848 72.0999L486.102 66.7465L482.934 61.7857L479.351 57.229L475.367 53.0798L473.474 51.1435L471.536 49.2518L469.553 47.4082L467.524 45.6112L463.166 41.8893L461.101 40.1451L458.995 38.4506L456.851 36.8058L454.664 35.2125L449.962 31.9344L447.749 30.4005L445.501 28.9215L443.217 27.4954L440.899 26.1256L435.886 23.2947L433.552 21.9879L431.187 20.7389L428.791 19.5464L426.368 18.4118L421.079 16.0315L418.649 14.9664L416.195 13.9593L413.717 13.0119L411.215 12.1242L405.687 10.1961L403.192 9.38122L400.678 8.62592L398.145 7.93178L392.382 6.43949L389.865 5.81652L387.334 5.25685L384.788 4.76142L378.822 3.69818L376.302 3.27241L373.771 2.9081L371.234 2.60982L365.097 1.95885L362.593 1.73027L360.083 1.56305L351.298 1.20866L348.828 1.17383L346.36 1.2035L339.93 1.32942L337.515 1.42227L335.102 1.57963L328.541 2.07162L326.187 2.28863L323.838 2.57013L317.17 3.4148L314.889 3.7511L308.074 4.94365L305.865 5.33464L303.665 5.78852L296.785 7.30564L294.665 7.80915L287.673 9.65287L285.634 10.2012L283.615 10.8123L276.598 12.9489L274.667 13.5983L267.578 16.0332L265.737 16.7207L258.59 19.4386L256.851 20.1576L249.659 23.149L242.368 26.4352L240.807 27.1474L233.503 30.6855L232.048 31.4143L224.749 35.1925L217.383 39.239L216.121 39.9413L208.788 44.2032L201.419 48.7168L200.355 49.3761L193.044 54.0769L185.724 59.008L184.865 59.6092L177.628 64.7026L170.408 70.0047L163.212 75.5104L156.057 81.2084L155.573 81.6059L148.554 87.4165L141.597 93.3961L134.713 99.5346L127.917 105.817L121.217 112.239L114.627 118.785L108.161 125.444L101.827 132.208L95.6371 139.064L89.6013 145.998L83.7295 152.999L83.3568 153.451L77.5925 160.594L72.0139 167.776L66.6322 174.993L61.4578 182.228L60.883 183.054L55.8675 190.379L51.0822 197.698L46.5337 205L45.8448 206.113L41.4901 213.465L37.3905 220.772L36.6617 222.083L32.7809 229.416L32.0669 230.839L28.4196 238.18L25.0588 245.434L24.325 247.042L21.2227 254.275L20.5187 255.986L17.6862 263.182L17.012 264.992L14.463 272.136L13.8219 274.039L11.5675 281.117L10.9663 283.11L9.01676 290.101L8.4585 292.18L6.31185 301.23L5.8647 303.403L4.54785 310.236L4.15029 312.485L3.81737 314.743L2.83349 321.498L2.55522 323.823L1.93246 330.416L1.71212 332.806L1.5581 335.199L1.29474 341.667L1.20193 344.116L1.17383 346.565L1.21189 349.015L1.32456 355.386L1.42728 357.88L1.59449 360.373L2.09477 366.571L2.33003 369.102L2.62811 371.623L2.99085 374.139L3.89855 380.182L4.3308 382.724L4.82445 385.255L5.38428 387.773L6.70937 393.626L7.33885 396.164L8.03121 398.685L8.78318 401.186L10.5423 406.818L11.3655 409.331L12.2501 411.822L13.1958 414.288L15.3922 419.668L16.4059 422.136L17.4808 424.579L18.6138 426.994L19.8048 429.381L22.4583 434.496L23.7155 436.87L25.029 439.213L26.3971 441.526L27.8217 443.801L30.9306 448.62L32.4164 450.874L33.9569 453.094L35.5469 455.274L37.1918 457.415L40.7464 461.901L42.4458 464.011L44.1949 466.078L45.9937 468.102L47.8373 470.082L51.8276 474.208L53.7224 476.149L55.6621 478.042L57.6448 479.886L59.6705 481.683L64.0764 485.423L66.1453 487.17L68.2539 488.868L70.3989 490.513L72.5837 492.105L79.6034 496.975L81.8544 498.457L84.1418 499.883L86.4591 501.253L91.6304 504.158L93.9691 505.467L96.3394 506.717L98.7361 507.912L101.159 509.043L106.669 511.508L109.105 512.576L111.562 513.581L114.045 514.527L116.544 515.41L122.355 517.428L124.856 518.243L127.375 518.993L129.908 519.68L136.003 521.257L138.526 521.875L141.062 522.43L143.608 522.918L149.953 524.06L152.479 524.479L155.012 524.832L157.551 525.121L164.112 525.832L166.618 526.052L169.127 526.206L175.909 526.501L178.377 526.587L180.845 526.611L190.241 526.45L192.653 526.34L202.156 525.653L204.503 525.416L211.794 524.509L214.073 524.214L216.342 523.856L223.75 522.567L225.943 522.153L228.123 521.676L235.618 520.025L237.713 519.5L245.336 517.485L247.345 516.914L255.075 514.55L256.988 513.939L264.808 511.234L266.622 510.587L274.506 507.556L276.217 506.875L284.15 503.527L285.75 502.822L293.71 499.171L295.199 498.444L303.167 494.502L311.208 490.24L312.492 489.542L320.507 485.019L328.562 480.197L329.631 479.546L337.621 474.494L345.618 469.164L346.464 468.579L354.362 463.05L362.233 457.266L370.061 451.244L377.831 444.991L378.269 444.63L385.875 438.239L393.39 431.649L400.802 424.876L408.093 417.932L415.247 410.831L422.249 403.588L429.085 396.219L435.74 388.735L442.202 381.157L442.533 380.756L448.863 373.008L454.972 365.193L460.846 357.332L466.474 349.441L467.034 348.629L472.464 340.629L477.618 332.632L482.491 324.651L483.174 323.529L487.803 315.493L492.857 306.173L496.917 298.171L497.627 296.715L501.405 288.713L502.096 287.144L505.576 279.162L508.71 271.304L509.407 269.544L512.217 261.742L512.881 259.882L515.355 252.16L515.98 250.201L516.541 248.221L518.69 240.527L519.208 238.458L520.997 230.885L521.467 228.732L522.89 221.3L523.308 219.067L523.661 216.823L524.716 209.493L525.014 207.178L525.246 204.852L525.915 197.654L526.087 195.268L526.193 192.873L526.466 185.835L526.508 183.389L526.485 180.941L526.347 174.088L526.258 171.594L526.1 169.101L525.547 162.462L525.322 159.934L525.034 157.41L524.679 154.889L523.697 148.457L523.271 145.912L522.784 143.377L522.229 140.855L520.815 134.656L520.19 132.117L519.503 129.595L518.753 127.085L516.901 121.159L516.079 118.648L515.198 116.153L514.254 113.682L511.965 108.057L510.953 105.59L509.879 103.146L508.748 100.729L507.557 98.3353L504.824 93.0315L503.57 90.6582L502.257 88.311L500.885 85.9986L499.461 83.7161L496.295 78.7685L494.81 76.5143L493.271 74.2963L491.676 72.1149L490.031 69.9698L486.445 65.4099L484.746 63.3029L482.998 61.2375L481.199 59.2099L479.351 57.229" fill="#F7FBFA"/>
<path d="M454.661 35.2159L458.985 38.9079L462.919 43.0108L466.452 47.5177L469.573 52.424L472.276 57.7243L474.552 63.4056L476.401 69.4581L477.812 75.8716L478.782 82.6395L479.308 89.7437L479.379 97.1793L478.994 104.931L478.153 112.984L476.856 121.324L475.109 129.936L472.909 138.797L470.26 147.896L467.166 157.211L463.628 166.729L459.648 176.43L455.237 186.291L450.404 196.295L445.16 206.422L439.51 216.647L433.469 226.952L427.05 237.312L420.259 247.708L413.109 258.115L405.617 268.515L397.799 278.884L389.674 289.198L381.26 299.438L372.569 309.58L363.624 319.601L354.443 329.478L345.04 339.193L335.441 348.722L325.667 358.046L315.735 367.146L305.671 376.004L295.497 384.601L285.233 392.914L274.9 400.928L264.523 408.625L254.121 415.989L243.719 423.006L233.337 429.664L222.999 435.95L212.726 441.85L202.54 447.353L192.464 452.446L182.517 457.119L172.718 461.366L163.09 465.177L153.648 468.553L144.414 471.486L135.403 473.971L126.638 476.005L118.132 477.583L109.903 478.703L101.969 479.366L94.34 479.574L87.0305 479.334L80.0505 478.645L73.4167 477.511L67.1356 475.937L61.2256 473.926L55.6934 471.481L50.5486 468.612L45.7965 465.331L41.4435 461.644L37.4914 457.563L33.9534 453.097" fill="#F7FBFA"/>
<path d="M426.365 18.4163L431.306 21.204L435.886 24.4024L440.091 28.005L443.919 32.0085L447.35 36.4095L450.374 41.2031L452.991 46.3808L455.191 51.9332L456.967 57.8498L458.318 64.1208L459.238 70.7347L459.716 77.6832L459.754 84.953L459.344 92.5359L458.489 100.414L457.187 108.573L455.443 116.996L453.256 125.665L450.633 134.567L447.572 143.683L444.075 152.997L440.151 162.49L435.802 172.143L431.041 181.936L425.878 191.846L420.323 201.857L414.383 211.944L408.072 222.088L401.4 232.265L394.379 242.456L387.023 252.642L379.35 262.795L371.377 272.899L363.121 282.93L354.597 292.865L345.825 302.684L336.821 312.364L327.605 321.885L318.195 331.225L308.615 340.368L298.883 349.291L289.023 357.979L279.055 366.41L269.002 374.568L258.882 382.432L248.718 389.988L238.533 397.219L228.347 404.112L218.181 410.654L208.061 416.832L198.005 422.634L188.034 428.051L178.17 433.064L168.435 437.667L158.845 441.855L149.423 445.618L140.184 448.954L131.147 451.856L122.333 454.322L113.756 456.346L105.435 457.923L97.3882 459.053L89.628 459.734L82.166 459.97L75.0154 459.767L68.1929 459.126L61.7048 458.048L55.5678 456.539L49.7904 454.601L44.3857 452.237L39.3586 449.459L34.7158 446.274L30.4638 442.691L26.6111 438.723L23.1576 434.375L20.1114 429.659L17.4778 424.584" fill="#F7FBFA"/>
<path d="M389.867 5.8167L395.598 7.30086L401.008 9.18916L406.088 11.4766L410.832 14.1633L415.224 17.2441L419.259 20.7158L422.921 24.5737L426.201 28.8174L429.092 33.4403L431.583 38.4326L433.673 43.786L435.354 49.4922L436.622 55.5395L437.473 61.9201L437.904 68.6216L437.903 75.6349L437.473 82.9495L436.61 90.5472L435.32 98.4168L433.602 106.541L431.46 114.904L428.893 123.491L425.906 132.285L422.502 141.271L418.683 150.427L414.457 159.737L409.836 169.186L404.824 178.746L399.437 188.403L393.682 198.134L387.568 207.922L381.108 217.741L374.313 227.576L367.196 237.404L359.774 247.204L352.063 256.955L344.083 266.635L340.094 271.277L340.091 271.283L340.088 271.286L335.844 276.226L327.368 285.705L318.671 295.052L309.768 304.247L300.681 313.267L291.428 322.099L282.035 330.721L272.514 339.115L262.892 347.266L253.187 355.152L243.421 362.758L233.616 370.066L223.787 377.063L213.958 383.735L204.15 390.07L194.386 396.058L184.684 401.682L175.066 406.934L165.548 411.8L156.157 416.273L146.907 420.341L137.817 424.005L128.906 427.254L120.188 430.088L111.686 432.502L103.414 434.49L95.3874 436.047L87.6239 437.171L80.1388 437.865L72.9417 438.129L66.0462 437.968L59.4637 437.382L53.2077 436.376L47.2878 434.955L41.7173 433.118L36.5048 430.87L31.6582 428.22L27.181 425.177L23.0847 421.75L19.3678 417.947L16.0418 413.78L13.1067 409.255L10.5724 404.382L8.44068 399.166L6.71136 393.627" fill="#F7FBFA"/>
<path d="M357.577 1.45739L363.583 2.0935L369.306 3.11534L374.737 4.52494L379.86 6.31881L384.669 8.49706L389.154 11.0512L393.305 13.9829L397.112 17.2858L400.565 20.9578L403.654 24.9944L406.369 29.3922L408.705 34.1427L410.657 39.2361L412.223 44.664L413.394 50.4165L414.167 56.4839L414.538 62.8577L414.503 69.528L414.058 76.4832L413.203 83.7082L411.939 91.1901L410.273 98.9154L408.199 106.866L405.728 115.029L402.854 123.388L399.588 131.929L395.926 140.633L391.879 149.483L387.457 158.461L382.668 167.549L377.522 176.727L372.026 185.976L366.194 195.277L360.032 204.612L353.552 213.958L346.771 223.3L339.698 232.615L332.357 241.884L324.756 251.089L316.913 260.207L308.846 269.221L300.571 278.109L292.102 286.853L283.457 295.435L274.659 303.836L265.724 312.042L256.674 320.032L247.527 327.791L238.301 335.301L229.017 342.544L219.695 349.507L210.351 356.178L201.011 362.54L191.691 368.584L182.41 374.297L173.189 379.668L164.047 384.686L155.002 389.338L146.076 393.617L137.284 397.516L128.646 401.029L120.173 404.151L111.888 406.878L103.805 409.207L95.9386 411.13L88.3078 412.645L80.9269 413.752L73.8078 414.444L66.9636 414.732L60.406 414.615L54.1449 414.095L48.1952 413.174L42.5636 411.858L37.2631 410.146L32.3039 408.042L27.6942 405.556L23.4373 402.694L19.5365 399.465L16.0018 395.878L12.8364 391.944L10.0455 387.665L7.63381 383.054L5.60469 378.12L3.96155 372.872L2.70279 367.323L1.82486 361.49L1.3313 355.381" fill="#F7FBFA"/>
<path d="M305.865 5.33122L312.616 4.15182L319.165 3.32373L325.498 2.84827L331.601 2.73074L337.467 2.97095L343.079 3.57046L348.422 4.53114L353.489 5.85789L358.268 7.54576L362.748 9.59141L366.924 11.9915L370.786 14.7444L374.323 17.8469L377.528 21.2938L380.39 25.0802L382.901 29.2079L385.058 33.6636L386.852 38.4422L388.283 43.5306L389.345 48.9254L390.034 54.6135L390.347 60.588L390.279 66.8375L389.827 73.3553L388.992 80.1234L387.776 87.1333L386.179 94.3681L384.208 101.815L381.863 109.458L379.141 117.284L376.052 125.28L372.595 133.427L368.782 141.713L364.616 150.115L360.109 158.621L355.27 167.207L350.105 175.864L344.624 184.568L338.84 193.304L332.758 202.049L326.396 210.79L319.765 219.508L312.879 228.182L305.757 236.795L298.409 245.329L290.851 253.768L283.101 262.088L275.169 270.276L267.076 278.309L258.839 286.179L250.474 293.864L242.003 301.351L233.441 308.621L224.808 315.661L216.12 322.453L207.396 328.984L198.654 335.242L189.913 341.213L181.191 346.888L172.506 352.257L163.877 357.305L155.321 362.028L146.857 366.407L138.502 370.439L130.272 374.118L122.185 377.434L114.253 380.387L106.495 382.971L98.9266 385.182L91.5606 387.016L84.4134 388.468L77.498 389.537L70.8294 390.222L64.4159 390.527L58.2691 390.453L52.4022 389.999L46.8219 389.172L41.5413 387.973L36.5706 386.404L31.9211 384.468L27.593 382.171L23.5994 379.522L19.9405 376.529L16.6211 373.2L13.6479 369.541L11.0258 365.561L8.7599 361.264L6.8534 356.664L5.30798 351.77L4.12539 346.592L3.29715 341.142L2.8317 335.433L2.72408 329.478L2.9742 323.285L3.58204 316.866L4.54773 310.233" fill="#F7FBFA"/>
<path d="M240.811 27.1409L248.025 23.8894L255.137 20.9313L262.134 18.2678L269.003 15.9107L275.727 13.8635L282.298 12.1324L288.702 10.7246L294.925 9.63961L300.961 8.88097L306.791 8.4503L312.41 8.34769L317.806 8.57617L322.964 9.13943L327.877 10.0371L332.531 11.2695L336.914 12.8365L341.025 14.7348L344.853 16.9593L348.388 19.5101L351.623 22.3804L354.548 25.5707L357.158 29.0757L359.443 32.8902L361.399 37.0097L363.02 41.424L364.307 46.1265L365.255 51.1087L365.858 56.3595L366.113 61.8753L366.018 67.641L365.57 73.6554L364.77 79.8983L363.617 86.3614L362.118 93.0317L360.269 99.8958L358.079 106.942L355.545 114.154L352.675 121.52L349.465 129.026L345.927 136.656L342.069 144.396L337.896 152.229L333.418 160.137L328.642 168.109L323.58 176.122L318.237 184.162L312.623 192.217L306.752 200.262L300.635 208.288L294.287 216.275L287.718 224.205L280.947 232.063L273.983 239.832L266.841 247.494L259.535 255.032L252.079 262.435L244.493 269.683L236.892 276.675L236.793 276.764L228.993 283.663L221.112 290.365L213.163 296.856L205.162 303.12L197.132 309.146L189.084 314.922L181.037 320.434L173.006 325.677L165.01 330.638L157.064 335.307L149.185 339.675L141.389 343.731L133.693 347.468L126.113 350.88L118.663 353.961L111.353 356.709L104.204 359.118L97.2278 361.185L90.4366 362.904L83.8475 364.272L77.4705 365.289L71.3187 365.952L65.4004 366.265L59.729 366.228L54.3127 365.844L49.1596 365.114L44.2833 364.04L39.6918 362.626L35.3919 360.873L31.3933 358.786L27.6979 356.373L24.3123 353.643L21.2397 350.6L18.4885 347.253L16.0585 343.607L13.9583 339.672L12.1893 335.451L10.7532 330.957L9.65003 326.2L8.87982 321.193L8.43914 315.942L8.33152 310.461L8.55676 304.76L9.11169 298.848L9.99786 292.735L11.2104 286.437L12.7425 279.962L14.5926 273.329L16.7526 266.544L19.2222 259.625L21.9918 252.582L25.0626 245.427" fill="#F7FBFA"/>
<path d="M342.459 71.9299L342.025 77.386L341.273 83.0508L340.201 88.9128L338.817 94.9619L337.119 101.185L335.11 107.57L332.791 114.106L330.165 120.78L327.239 127.579L324.015 134.49L320.502 141.498L316.707 148.589L312.636 155.751L308.298 162.965L303.701 170.218L298.853 177.494L293.762 184.782L288.436 192.065L282.891 199.327L277.138 206.554L271.188 213.729L265.055 220.84L258.747 227.87L252.279 234.805L245.667 241.629L238.919 248.328L232.053 254.892L225.085 261.304L218.025 267.552L210.891 273.622L203.699 279.502L196.461 285.181L189.194 290.645L181.911 295.881L174.628 300.885L167.36 305.642L160.121 310.147L152.929 314.391L145.795 318.361L138.739 322.051L131.771 325.455L124.904 328.566L118.154 331.377L111.533 333.89L105.053 336.096L98.7294 337.991L92.5726 339.576L86.5964 340.841L80.8107 341.791L75.2287 342.42L69.8588 342.731L64.709 342.726L59.7879 342.407L55.1087 341.776L50.6761 340.832L46.5021 339.576L42.5914 338.014L38.9523 336.151L35.5865 333.991L32.5024 331.543L29.7015 328.808L27.1921 325.798L24.9741 322.514L23.0544 318.967L21.4361 315.159L20.1192 311.103L19.1039 306.804L18.3916 302.276L17.9809 297.529L17.8716 292.57L18.0637 287.405L18.5573 282.052L19.3508 276.511L20.4423 270.802L21.8287 264.93L23.5016 258.91L25.4578 252.754L27.6955 246.471L30.2099 240.074L32.9944 233.573L36.047 226.982L39.3598 220.31L42.926 213.57L46.7373 206.777L50.7855 199.94L55.0656 193.073L59.5659 186.187L64.2833 179.296L69.2077 172.408L74.3309 165.539L79.6413 158.698L85.1322 151.898L90.7887 145.152L96.6059 138.47L102.569 131.864L108.673 125.347L114.904 118.93L121.253 112.621L127.708 106.434L134.259 100.38L140.891 94.4666L147.594 88.7041L154.359 83.1055L161.172 77.6808L168.022 72.4401L174.896 67.3915L181.784 62.5415L188.674 57.9037L195.551 53.4811L202.406 49.2839L209.223 45.3219L215.993 41.5999L222.705 38.1315L229.343 34.9181L235.899 31.9664L242.359 29.2798L248.711 26.8665L254.948 24.7313L261.051 22.8778L267.013 21.3127L272.818 20.0422L278.462 19.0665L283.928 18.3875L289.21 18.0081L294.297 17.9269L299.18 18.1456L303.844 18.669L308.281 19.4956L312.485 20.6286L316.442 22.0647L320.149 23.8004L323.598 25.8344L326.78 28.1618L329.688 30.7788L332.317 33.6858L334.654 36.8777L336.7 40.351L338.444 44.0995L339.888 48.1146L341.025 52.3879L341.854 56.9149L342.373 61.6868L342.573 66.6942L342.459 71.9299Z" fill="#F7FBFA"/>
<path d="M320.39 79.5244L319.979 84.3874L319.285 89.4377L318.311 94.6619L317.057 100.05L315.525 105.591L313.718 111.277L311.637 117.094L309.284 123.032L306.665 129.08L303.783 135.228L300.644 141.461L297.255 147.765L293.623 154.131L289.757 160.544L285.659 166.991L281.339 173.458L276.806 179.932L272.067 186.404L267.132 192.855L262.014 199.276L257.245 205.022L256.724 205.653L251.269 211.968L245.662 218.215L239.915 224.376L234.036 230.44L228.042 236.395L221.941 242.227L215.75 247.925L209.479 253.481L203.14 258.879L196.749 264.11L190.319 269.162L183.863 274.021L177.391 278.684L170.918 283.14L164.46 287.378L158.026 291.394L151.633 295.177L145.292 298.721L139.016 302.016L132.82 305.059L126.711 307.841L120.705 310.359L114.813 312.61L109.046 314.591L103.414 316.3L97.9314 317.728L92.6062 318.879L87.4514 319.744L82.4757 320.327L77.6855 320.629L73.0907 320.648L68.7013 320.387L64.5222 319.849L60.5635 319.034L56.8317 317.942L53.335 316.575L50.0786 314.939L47.069 313.039L44.3062 310.879L41.795 308.467L39.5408 305.806L37.5481 302.902L35.8205 299.76L34.3628 296.384L33.1736 292.786L32.2527 288.974L31.6017 284.954L31.2207 280.733L31.1081 276.324L31.2654 271.731L31.6928 266.967L32.3885 262.034L33.3492 256.949L34.5748 251.718L36.0573 246.353L37.7949 240.862L39.7826 235.26L42.0187 229.553L44.4983 223.754L47.218 217.867L50.1731 211.91L53.3516 205.893L56.7538 199.824L60.3664 193.713L64.186 187.578L68.2077 181.423L72.4215 175.261L76.8225 169.105L81.4007 162.963L86.1496 156.846L91.0558 150.764L96.1161 144.729L101.317 138.753L106.651 132.843L112.11 127.013L117.684 121.273L123.363 115.63L129.138 110.098L134.996 104.683L140.929 99.3926L146.925 94.2412L152.975 89.2357L159.068 84.3841L165.194 79.6999L171.339 75.1879L177.499 70.8565L183.656 66.7106L189.803 62.7634L195.926 59.015L202.02 55.4787L208.066 52.1593L214.059 49.0652L219.987 46.2013L225.837 43.5742L231.601 41.1825L237.269 39.0358L242.83 37.1393L248.271 35.4944L253.585 34.1096L258.756 32.9868L263.781 32.1288L268.648 31.5356L273.347 31.2094L277.871 31.1513L282.209 31.3618L286.355 31.8438L290.295 32.5974L294.024 33.6226L297.534 34.9197L300.818 36.4816L303.869 38.3102L306.683 40.3989L309.252 42.7494L311.571 45.3532L313.632 48.2122L315.429 51.3213L316.96 54.6736L318.22 58.263L319.207 62.0826L319.921 66.1258L320.358 70.3861L320.516 74.8534L320.39 79.5244Z" fill="#F7FBFA"/>
<path d="M300.445 90.2111L300.069 94.4663L299.446 98.8822L298.576 103.449L297.465 108.158L296.113 112.998L294.521 117.962L292.691 123.042L290.626 128.225L288.33 133.502L285.802 138.866L283.056 144.302L280.091 149.801L276.918 155.35L273.537 160.94L269.959 166.559L266.187 172.195L262.23 177.835L258.096 183.474L253.793 189.095L249.329 194.689L244.716 200.243L239.962 205.745L235.076 211.188L230.067 216.555L224.947 221.837L219.723 227.025L214.407 232.105L209.013 237.072L203.551 241.914L198.031 246.62L192.464 251.18L186.862 255.586L181.233 259.826L175.595 263.894L169.957 267.783L164.328 271.484L158.72 274.992L153.146 278.3L147.619 281.399L142.144 284.282L136.738 286.946L131.411 289.384L126.17 291.594L121.026 293.571L115.99 295.314L111.072 296.82L106.281 298.083L101.628 299.102L97.1208 299.876L92.7695 300.404L88.5772 300.684L84.5555 300.72L80.7111 300.513L77.0505 300.063L73.5803 299.369L70.3073 298.435L67.238 297.26L64.3791 295.849L61.7322 294.209L59.3007 292.341L57.091 290.25L55.1051 287.943L53.3476 285.42L51.8205 282.691L50.5268 279.757L49.4717 276.625L48.6501 273.306L48.0638 269.801L47.7126 266.124L47.6 262.277L47.7209 258.271L48.0804 254.112L48.675 249.803L49.5032 245.361L50.5616 240.788L51.847 236.097L53.3576 231.297L55.0868 226.394L57.0347 221.398L59.198 216.32L61.5732 211.168L64.1505 205.951L66.9316 200.678L69.9048 195.36L73.0669 190.008L76.4094 184.628L79.9292 179.233L83.6196 173.83L87.4757 168.43L91.4875 163.044L95.6499 157.679L99.9515 152.344L104.386 147.051L108.947 141.807L113.625 136.626L118.414 131.51L123.301 126.476L128.284 121.527L133.349 116.673L138.489 111.921L143.693 107.283L148.952 102.766L154.261 98.3787L159.603 94.1268L164.976 90.0223L170.368 86.0684L175.766 82.2737L181.164 78.6446L186.554 75.1861L191.922 71.908L197.261 68.8156L202.559 65.9119L207.808 63.2105L212.999 60.7093L218.123 58.4152L223.168 56.3315L228.127 54.4631L232.992 52.8116L237.751 51.3855L242.394 50.1847L246.916 49.214L251.303 48.4769L255.554 47.9734L259.656 47.7034L263.602 47.667L267.385 47.869L270.999 48.3063L274.431 48.982L277.676 49.8947L280.73 51.0444L283.586 52.4291L286.236 54.0422L288.679 55.886L290.906 57.9564L292.913 60.2488L294.695 62.7633L296.247 65.4946L297.564 68.4379L298.646 71.5867L299.491 74.9359L300.093 78.4806L300.455 82.2108L300.574 86.1232L300.445 90.2111Z" fill="#F7FBFA"/>
<path d="M283.271 103.626L282.935 107.271L282.388 111.054L281.635 114.965L280.674 118.994L279.508 123.138L278.136 127.385L276.564 131.726L274.79 136.157L272.821 140.667L270.654 145.249L268.301 149.892L265.765 154.588L263.048 159.325L260.158 164.097L257.099 168.892L253.877 173.7L251.126 177.621L250.496 178.516L246.966 183.324L243.291 188.119L239.483 192.891L235.546 197.627L231.491 202.321L227.322 206.96L223.048 211.539L218.681 216.046L214.225 220.468L209.693 224.805L205.092 229.042L200.432 233.171L195.725 237.186L190.974 241.079L186.197 244.839L181.397 248.459L177.591 251.209L177.561 251.232L176.587 251.935L171.775 255.256L166.972 258.419L162.186 261.419L157.428 264.246L152.709 266.898L148.034 269.366L143.416 271.649L138.863 273.737L134.384 275.636L129.986 277.333L125.68 278.834L121.474 280.131L117.375 281.223L113.391 282.105L109.53 282.78L105.801 283.242L102.21 283.497L98.7619 283.54L95.4624 283.378L92.3219 283.007L89.3405 282.427L86.5262 281.643L83.8892 280.653L81.4295 279.462L79.1487 278.072L77.0534 276.487L75.1469 274.713L73.4309 272.752L71.9087 270.607L70.5852 268.28L69.4622 265.782L68.5413 263.112L67.8208 260.278L67.3023 257.288L66.986 254.146L66.8732 250.86L66.9628 247.434L67.2559 243.878L67.7495 240.194L68.4452 236.391L69.3396 232.475L70.4279 228.459L71.7099 224.348L73.1824 220.145L74.8422 215.865L76.6874 211.512L78.7147 207.093L80.9177 202.618L83.2946 198.094L85.8388 193.532L88.5453 188.938L91.4092 184.321L94.4239 179.69L97.5875 175.052L100.894 170.414L104.334 165.788L107.903 161.181L111.597 156.6L115.402 152.053L119.318 147.551L123.333 143.099L127.444 138.706L131.643 134.381L135.921 130.133L140.271 125.965L144.685 121.886L149.156 117.905L153.673 114.028L158.229 110.263L162.819 106.614L167.432 103.091L172.06 99.7017L176.698 96.4486L181.332 93.3379L185.957 90.3763L190.565 87.5704L195.145 84.9218L199.692 82.4389L204.195 80.1282L208.648 77.9916L213.041 76.0336L217.365 74.2564L221.616 72.6663L225.783 71.2616L229.859 70.0508L233.836 69.0355L237.707 68.2189L241.462 67.601L245.096 67.1837L248.603 66.9667L251.975 66.9535L255.209 67.1423L258.293 67.5332L261.223 68.1278L263.992 68.9261L266.593 69.9266L269.026 71.1275L271.284 72.5272L273.361 74.1206L275.254 75.9078L276.957 77.8855L278.468 80.0521L279.779 82.4041L280.892 84.9351L281.802 87.6433L282.509 90.5204L283.011 93.5632L283.307 96.765L283.394 100.121L283.271 103.626Z" fill="#F7FBFA"/>
<path d="M269.378 119.34L269.089 122.397L268.624 125.566L267.984 128.839L267.175 132.213L266.194 135.678L265.041 139.23L263.723 142.86L262.235 146.564L260.584 150.332L258.772 154.159L256.804 158.038L254.682 161.958L252.411 165.912L251.186 167.936L249.996 169.894L247.442 173.896L244.752 177.908L241.931 181.924L238.985 185.935L235.92 189.933L232.743 193.912L229.459 197.862L226.076 201.774L222.6 205.645L219.038 209.462L215.396 213.217L211.681 216.906L207.903 220.521L204.066 224.053L200.181 227.498L196.255 230.847L192.296 234.094L188.311 237.231L184.307 240.251L180.297 243.151L176.282 245.924L172.274 248.564L168.28 251.07L167.924 251.28L167.906 251.292L167.898 251.297L164.31 253.434L160.37 255.648L156.465 257.714L152.609 259.622L148.805 261.373L145.063 262.961L141.387 264.387L137.786 265.646L134.267 266.734L130.836 267.654L127.502 268.401L124.27 268.972L121.145 269.368L118.135 269.588L115.245 269.636L112.477 269.509L109.838 269.209L107.334 268.735L104.972 268.089L102.752 267.271L100.68 266.285L98.7589 265.133L96.993 263.817L95.3831 262.34L93.9321 260.71L92.6451 258.923L91.5204 256.987L90.5647 254.901L89.7796 252.675L89.1601 250.31L88.7111 247.814L88.4329 245.19L88.3236 242.444L88.3849 239.58L88.6134 236.605L89.0159 233.522L89.5841 230.34L90.3212 227.062L91.2206 223.698L92.284 220.253L93.5064 216.735L94.8878 213.147L96.4233 209.498L98.1144 205.793L99.9546 202.041L101.939 198.248L104.064 194.42L106.328 190.566L108.725 186.692L111.248 182.804L113.898 178.911L116.666 175.021L119.551 171.138L122.544 167.27L125.639 163.424L128.83 159.61L132.115 155.828L135.484 152.091L138.933 148.404L142.456 144.775L146.047 141.207L149.699 137.711L153.403 134.289L157.156 130.949L160.948 127.698L164.774 124.537L168.627 121.48L172.499 118.528L176.383 115.687L180.274 112.963L184.163 110.359L188.046 107.881L191.912 105.532L195.755 103.316L199.568 101.242L203.344 99.3141L207.078 97.5319L210.76 95.9004L214.386 94.4211L217.947 93.0961L221.437 91.9316L224.852 90.9279L228.182 90.0897L231.42 89.419L234.564 88.9154L237.603 88.5791L240.537 88.4119L243.356 88.4152L246.057 88.5858L248.633 88.9287L251.078 89.4421L253.389 90.1262L255.56 90.9793L257.587 91.9996L259.466 93.1856L261.197 94.5355L262.772 96.0445L264.186 97.714L265.439 99.5394L266.529 101.52L267.449 103.651L268.2 105.928L268.781 108.345L269.19 110.901L269.427 113.589L269.49 116.401L269.378 119.34Z" fill="#F7FBFA"/>
<path d="M170.067 248.111L167.484 249.478L167.163 249.647L164.017 251.206L162.242 252.024L162.238 252.024L162.146 252.067L162.141 252.068L162.114 252.082L162.058 252.108L162.03 252.12L160.915 252.635L157.859 253.932L154.859 255.096L151.919 256.128L149.044 257.019L146.241 257.775L143.515 258.388L140.871 258.858L138.317 259.186L135.852 259.371L133.484 259.415L131.216 259.317L129.053 259.078L126.999 258.697L125.059 258.176L123.236 257.515L121.533 256.716L119.954 255.78L118.499 254.712L117.17 253.513L115.973 252.186L114.907 250.73L113.977 249.153L113.183 247.455L112.527 245.64L112.009 243.714L111.628 241.676L111.388 239.535L111.285 237.292L111.32 234.955L111.497 232.525L111.813 230.006L112.267 227.405L112.859 224.727L113.584 221.974L114.442 219.158L115.433 216.279L116.554 213.342L117.801 210.356L119.176 207.325L120.673 204.25L122.292 201.145L124.026 198.009L125.873 194.854L127.827 191.68L129.891 188.497L132.054 185.306L134.319 182.118L136.677 178.938L139.124 175.769L141.658 172.619L144.27 169.493L146.957 166.396L149.716 163.335L152.542 160.313L155.426 157.34L158.368 154.418L161.357 151.554L164.393 148.753L167.468 146.017L170.575 143.357L173.711 140.771L176.866 138.269L180.038 135.855L183.221 133.533L186.41 131.305L189.597 129.178L192.775 127.153L195.941 125.236L199.09 123.429L202.214 121.74L205.304 120.166L208.36 118.717L211.373 117.39L214.342 116.187L217.255 115.116L220.111 114.172L222.903 113.363L225.626 112.688L228.273 112.151L230.841 111.75L233.327 111.487L235.722 111.364L238.024 111.377L240.229 111.531L242.331 111.824L244.325 112.258L246.209 112.83L247.978 113.539L249.629 114.389L251.16 115.369L252.566 116.484L253.848 117.729L254.999 119.106L256.016 120.61L256.899 122.238L257.643 123.989L258.251 125.859L258.718 127.843L259.047 129.939L259.234 132.14L259.279 134.447L259.183 136.852L258.941 139.353L258.559 141.946L258.032 144.622L257.368 147.38L256.561 150.211L255.619 153.111L254.539 156.076L253.324 159.099L251.983 162.16L251.975 162.175L251.958 162.212L251.951 162.228L251.873 162.389L250.495 165.297L249.861 166.548L249.826 166.616L248.89 168.459L247.58 170.876" fill="#F7FBFA"/>
<path d="M252.378 160.682L252.326 160.826L252.301 160.894L252.242 161.056L252.222 161.113L252.22 161.118L252.176 161.242L252.171 161.253L251.924 161.931" fill="#F7FBFA"/>
<path d="M252.548 160.102L252.374 160.64L252.266 160.966L252.261 160.981L252.243 161.043L252.18 161.235L252.175 161.25" fill="#F7FBFA"/>
<path d="M252.6 159.757L252.255 160.963L252.247 160.991" fill="#F7FBFA"/>
<path d="M252.576 159.614L252.23 161.05Z" fill="#F7FBFA"/>
<path d="M161.097 252.311L160.925 252.351L158.814 252.728L156.772 252.992L154.803 253.142L152.909 253.18L151.094 253.104L149.363 252.917L147.718 252.617L146.163 252.205L144.7 251.68L143.334 251.045L142.065 250.303L140.896 249.455L139.826 248.501L138.86 247.446L138 246.288L137.248 245.033L136.604 243.683L136.069 242.237L135.645 240.7L135.33 239.076L135.126 237.369L135.035 235.581L135.054 233.718L135.184 231.778L135.426 229.768L135.779 227.692L136.241 225.554L136.811 223.357L137.488 221.106L138.27 218.807L139.156 216.463L140.145 214.077L141.237 211.653L142.426 209.199L143.713 206.716L145.093 204.21L146.562 201.687L148.119 199.149L149.764 196.604L151.488 194.054L153.295 191.505L155.175 188.963L157.13 186.428L159.152 183.909L161.238 181.409L163.383 178.933L165.587 176.487L167.843 174.072L170.151 171.695L172.501 169.361L174.893 167.072L177.318 164.832L179.776 162.649L182.26 160.523L184.765 158.459L187.289 156.461L189.827 154.536L192.373 152.683L194.92 150.907L197.468 149.211L200.009 147.598L202.541 146.072L205.057 144.633L207.553 143.29L210.025 142.041L212.466 140.888L214.874 139.834L217.245 138.885L219.572 138.036L221.853 137.292L224.084 136.654L226.257 136.124L228.371 135.703L230.42 135.394L232.401 135.195L234.314 135.107L236.149 135.13L237.906 135.261L239.583 135.506L241.171 135.862L242.672 136.329L244.081 136.908L245.397 137.593L246.614 138.387L247.734 139.288L248.751 140.292L249.665 141.398L250.473 142.607L251.174 143.914L251.765 145.32L252.246 146.818L252.615 148.409L252.875 150.087L253.021 151.85L253.054 153.695L252.975 155.616L252.781 157.616L252.473 159.686L252.166 161.241" fill="#F7FBFA"/>
<path d="M252.102 161.481L252.062 161.583L251.483 163.021" fill="#F7FBFA"/>
<path d="M516.535 248.227L514.014 256.095L511.123 264.124L507.865 272.295L504.246 280.591L500.276 289.001L495.961 297.5L491.31 306.073L486.334 314.706L481.037 323.376L475.432 332.068L469.528 340.764L463.337 349.444L456.874 358.09L450.152 366.687L443.185 375.214L435.988 383.653L428.576 391.986L420.962 400.197L413.16 408.263L405.191 416.173L397.072 423.908L388.814 431.453L380.445 438.792L371.976 445.91L363.426 452.79L354.814 459.421L346.156 465.783L337.472 471.867L328.777 477.659L320.095 483.155L311.44 488.338L302.83 493.198L294.287 497.726L285.824 501.915L277.461 505.753L269.214 509.233L261.099 512.352L253.134 515.107L245.329 517.492" fill="#F7FBFA"/>
<path d="M526.186 192.877L525.505 200.18L524.419 207.733L522.928 215.518L521.035 223.523L518.739 231.732L516.044 240.129L512.953 248.699L509.47 257.423L505.599 266.286L501.352 275.267L496.736 284.352L491.76 293.515L486.433 302.745L480.763 312.016L474.764 321.311L468.445 330.612L461.816 339.897L454.896 349.15L447.699 358.351L440.24 367.476L432.533 376.508L424.595 385.43L416.444 394.217L408.091 402.855L399.559 411.32L390.865 419.604L382.028 427.682L373.07 435.54L364.005 443.161L354.854 450.53L345.639 457.628L336.377 464.439L327.084 470.952L317.787 477.155L308.501 483.035L299.247 488.582L290.045 493.783L280.913 498.632L271.871 503.112L262.938 507.215L254.129 510.938L245.465 514.273L236.961 517.218L228.634 519.767L220.501 521.917L212.581 523.663L204.887 525.003L197.431 525.932L190.234 526.454" fill="#F7FBFA"/>
<path d="M523.268 145.912L524.255 152.378L524.821 159.163L524.962 166.25L524.672 173.633L523.953 181.295L522.805 189.221L521.233 197.395L519.234 205.805L516.814 214.429L513.974 223.253L510.716 232.262L507.04 241.437L502.959 250.759L498.48 260.207L493.61 269.764L488.363 279.411L482.746 289.126L476.766 298.888L470.439 308.677L463.774 318.473L456.784 328.256L449.484 338.004L441.895 347.697L434.027 357.314L425.901 366.835L417.531 376.238L408.934 385.5L400.129 394.607L391.133 403.537L381.968 412.267L372.653 420.788L363.208 429.073L353.656 437.111L344.012 444.88L334.303 452.367L324.542 459.55L314.756 466.418L304.963 472.96L295.187 479.162L285.443 485.011L275.756 490.5L266.144 495.61L256.632 500.335L247.234 504.662L237.971 508.588L228.861 512.106L219.921 515.211L211.172 517.901L202.629 520.167L194.311 522.009L186.231 523.424L178.409 524.404L170.858 524.956L163.588 525.08L156.615 524.779L149.949 524.06" fill="#F7FBFA"/>
<path d="M514.247 113.688L516.117 119.673L517.559 126.008L518.575 132.685L519.153 139.69L519.289 147.015L518.979 154.645L518.224 162.569L517.025 170.769L515.383 179.228L513.301 187.929L510.778 196.858L507.82 205.995L504.428 215.327L500.605 224.831L496.359 234.493L491.7 244.287L486.638 254.195L481.18 264.198L475.338 274.271L469.124 284.398L462.546 294.553L455.617 304.718L448.351 314.87L440.766 324.989L432.877 335.052L424.701 345.036L416.257 354.922L407.563 364.686L398.63 374.308L389.483 383.766L380.138 393.041L370.617 402.112L360.944 410.964L351.138 419.573L341.218 427.926L331.207 436L321.128 443.78L310.999 451.245L300.844 458.386L290.682 465.185L280.538 471.632L270.433 477.716L260.388 483.42L250.422 488.736L240.56 493.648L230.82 498.15L221.222 502.233L211.785 505.896L202.528 509.127L193.467 511.927L184.624 514.29L176.014 516.212L167.654 517.687L159.565 518.714L151.758 519.296L144.245 519.435L137.041 519.132L130.157 518.393L123.608 517.22L117.403 515.617L111.554 513.588" fill="#F7FBFA"/>
<path d="M499.462 83.716L502.208 89.0563L504.534 94.7739L506.429 100.863L507.888 107.311L508.909 114.109L509.483 121.243L509.606 128.707L509.273 136.483L508.484 144.563L507.24 152.923L505.546 161.551L503.401 170.431L500.805 179.542L497.764 188.871L494.279 198.395L490.354 208.102L485.996 217.969L481.214 227.975L476.021 238.101L470.424 248.322L464.435 258.618L458.064 268.97L451.321 279.354L444.22 289.748L436.775 300.132L429.003 310.481L420.923 320.774L412.549 330.99L403.901 341.106L394.996 351.097L385.849 360.946L376.484 370.626L366.919 380.122L357.174 389.409L347.272 398.473L337.238 407.291L327.088 415.845L316.846 424.115L306.535 432.084L296.175 439.735L285.791 447.051L275.4 454.02L265.03 460.63L254.701 466.865L244.433 472.717L234.249 478.166L224.173 483.207L214.224 487.826L204.421 492.02L194.784 495.78L185.335 499.101L176.085 501.98L167.062 504.412L158.278 506.394L149.752 507.92L141.504 508.986L133.545 509.598L125.889 509.753L118.549 509.464L111.541 508.723L104.873 507.541L98.5569 505.919L92.6122 503.86L87.0418 501.371L81.8556 498.457" fill="#F7FBFA"/>
<path d="M166.556 249.938L166.495 249.916L165.422 249.423L164.423 248.845L163.502 248.182L162.661 247.44L161.899 246.615L161.218 245.712L160.621 244.735L160.111 243.678L159.686 242.55L159.344 241.351L159.091 240.084L158.924 238.751L158.843 237.354L158.849 235.897L158.944 234.381L159.126 232.811L159.394 231.188L159.747 229.516L160.186 227.799L160.708 226.038L161.312 224.241L161.998 222.406L162.765 220.539L163.613 218.644L164.537 216.722L165.538 214.781L166.611 212.82L167.757 210.846L168.971 208.86L170.252 206.867L171.598 204.871L173.008 202.878L174.476 200.887L176.001 198.905L177.581 196.934L179.211 194.976L180.889 193.04L182.612 191.125L184.377 189.236L186.179 187.378L188.018 185.553L189.888 183.762L191.786 182.013L193.709 180.305L195.654 178.642L197.613 177.031L199.588 175.47L201.574 173.965L203.566 172.519L205.561 171.134L207.553 169.811L209.543 168.553L211.524 167.364L213.493 166.246L215.446 165.197L217.381 164.227L219.29 163.331L221.174 162.514L223.027 161.777L224.849 161.121L226.633 160.546L228.376 160.053L230.077 159.647L231.728 159.327L233.332 159.092L234.88 158.945L236.373 158.883L237.807 158.91L239.18 159.021L240.489 159.22L241.731 159.508L242.902 159.88L244.002 160.341L245.027 160.886L245.978 161.512L246.851 162.223L247.644 163.016L248.357 163.887L248.988 164.84L249.533 165.868L249.842 166.609" fill="#F7FBFA"/>
<path d="M181.949 240.75L181.976 240.276L182.11 239.062L182.312 237.806L182.579 236.513L182.913 235.184L183.311 233.823L183.774 232.431L184.299 231.012L184.888 229.569L185.537 228.102L186.249 226.614L187.019 225.112L187.844 223.594L188.727 222.066L189.663 220.53L190.65 218.99L191.689 217.444L192.775 215.901L193.91 214.362L195.088 212.826L196.307 211.302L197.565 209.789L198.862 208.29L200.194 206.809L201.559 205.348L202.952 203.912L204.375 202.499L205.821 201.116L207.287 199.763L208.776 198.442L210.278 197.159L211.795 195.913L213.324 194.709L214.86 193.548L216.4 192.431L217.946 191.363L219.488 190.341L221.026 189.372L222.56 188.458L224.083 187.595L225.595 186.788L227.09 186.041L228.57 185.354L230.027 184.728L231.462 184.161L232.871 183.659L234.251 183.22L235.599 182.846L236.914 182.538L238.191 182.294L239.43 182.119L240.628 182.011L240.648 182.011" fill="#F7FBFA"/>
<path d="M167.493 249.473L165.592 250.414L162.57 251.805" fill="#F7FBFA"/>
<path d="M197.63 228.845L194.53 231.389L191.013 234.157L187.483 236.822L184.142 239.235L183.944 239.378" fill="#F7FBFA"/>
<path d="M184.133 239.238L181.947 240.749L181.329 241.175L177.885 243.445L174.452 245.6" fill="#F7FBFA"/>
<path d="M175.291 245.073L172.282 246.864L168.982 248.722" fill="#F7FBFA"/>
<path d="M467.032 348.633L461.337 356.617L455.396 364.569L449.216 372.475L442.81 380.315L436.195 388.073L429.38 395.736L422.381 403.282L415.21 410.698L407.884 417.967L400.42 425.077L392.831 432.014L385.137 438.76L377.349 445.303L369.487 451.63L361.568 457.724L353.604 463.574L345.616 469.168" fill="#F7FBFA"/>
<path d="M230.598 195.464L230.295 195.827L227.625 199.041L224.564 202.582L221.418 206.082L218.193 209.535L214.899 212.936L211.536 216.275L208.116 219.547L204.644 222.743L201.129 225.861L197.624 228.849L197.576 228.89" fill="#F7FBFA"/>
<path d="M240.785 181.839L240.667 182.006L240.257 182.593L238.297 185.38L235.698 188.92L232.993 192.446L230.295 195.824" fill="#F7FBFA"/>
<path d="M244.67 175.853L244.421 176.243L242.473 179.291L240.653 182.009L240.26 182.594" fill="#F7FBFA"/>
<path d="M247.9 170.329L247.582 170.879L245.997 173.64L244.418 176.245" fill="#F7FBFA"/>
<path d="M251.169 163.793L249.862 166.55Z" fill="#F7FBFA"/>
<path d="M251.714 162.514L251.49 163.019L250.819 164.552" fill="#F7FBFA"/>
<path d="M160.936 252.371L159.302 252.879L159.08 252.949" fill="#F7FBFA"/>
<path d="M161.541 252.155L161.432 252.195L161.43 252.197L161.102 252.309L161.081 252.317L160.943 252.365L160.629 252.475L159.612 252.833" fill="#F7FBFA"/>
<path d="M161.427 252.197L161.124 252.252Z" fill="#F7FBFA"/>
<path d="M162.564 251.756L161.544 252.15L161.454 252.187L161.453 252.185L161.239 252.27L161.207 252.281L161.181 252.291L161.077 252.333L161.053 252.343L161.048 252.344L161.037 252.349L160.368 252.608" fill="#F7FBFA"/>
<path d="M164.022 251.139L162.569 251.757L162.049 251.975L161.955 252.017L161.625 252.157L161.622 252.158L161.461 252.225L161.432 252.239L161.427 252.24L161.418 252.245L161.357 252.27" fill="#F7FBFA"/>
<path d="M55.6621 478.042L60.0648 481.779L64.8682 485.108L70.0677 488.022L75.6546 490.511L81.6242 492.562L87.9615 494.175L94.6582 495.343L101.7 496.067L109.075 496.337L116.769 496.156L124.77 495.517L133.066 494.419L141.64 492.859L150.477 490.839L159.557 488.365L168.864 485.441L178.377 482.071L188.078 478.259L197.947 474.012L207.968 469.335L218.115 464.233L228.373 458.719L238.717 452.801L249.126 446.496L259.576 439.816L270.047 432.773L280.516 425.383L290.959 417.656L301.355 409.606L311.682 401.252L321.918 392.616L332.042 383.715L342.029 374.567L351.859 365.193L361.513 355.612L370.962 345.845L380.192 335.91L389.181 325.831L397.913 315.631L406.367 305.328L414.53 294.949L422.38 284.516L429.901 274.049L437.078 263.572L443.893 253.107L450.331 242.677L456.388 232.303L462.052 222.005L467.306 211.809L472.146 201.731L476.558 191.797L480.538 182.026L484.073 172.435L487.161 163.047L489.799 153.879L491.984 144.946L493.716 136.266L494.992 127.859L495.808 119.738L496.168 111.918L496.067 104.419L495.51 97.2505L494.505 90.4212L493.056 83.9496L491.169 77.836L488.848 72.0999L486.102 66.7465L482.934 61.7857L479.351 57.229M55.6621 478.042L53.7224 476.149L51.8276 474.208L47.8373 470.082L45.9937 468.102L44.1949 466.078L42.4458 464.011L40.7464 461.901L37.1918 457.415L35.5469 455.274L33.9569 453.094L32.4164 450.874L30.9306 448.62L27.8217 443.801L26.3971 441.526L25.029 439.213L23.7155 436.87L22.4583 434.496L19.8048 429.381L18.6138 426.994L17.4808 424.579L16.4059 422.136L15.3922 419.668L13.1958 414.288L12.2501 411.822L11.3655 409.331L10.5423 406.818L8.78318 401.186L8.03121 398.685L7.33885 396.164L6.70937 393.626L5.38428 387.773L4.82445 385.255L4.3308 382.724L3.89855 380.182L2.99085 374.139L2.62811 371.623L2.33003 369.102L2.09477 366.571L1.59449 360.373L1.42728 357.88L1.32456 355.386L1.21189 349.015L1.17383 346.565L1.20193 344.116L1.29474 341.667L1.5581 335.199L1.71212 332.806L1.93246 330.416L2.55522 323.823L2.83349 321.498L3.81737 314.743L4.15029 312.485L4.54785 310.236L5.8647 303.403L6.31185 301.23L8.4585 292.18L9.01676 290.101L10.9663 283.11L11.5675 281.117L13.8219 274.039L14.463 272.136L17.012 264.992L17.6862 263.182L20.5187 255.986L21.2227 254.275L24.325 247.042L25.0588 245.434L28.4196 238.18L32.0669 230.839L32.7809 229.416L36.6617 222.083L37.3905 220.772L41.4901 213.465L45.8448 206.113L46.5337 205L51.0822 197.698L55.8675 190.379L60.883 183.054L61.4578 182.228L66.6322 174.993L72.0139 167.776L77.5925 160.594L83.3568 153.451L83.7295 152.999L89.6013 145.998L95.6371 139.064L101.827 132.208L108.161 125.444L114.627 118.785L121.217 112.239L127.917 105.817L134.713 99.5346L141.597 93.3961L148.554 87.4165L155.573 81.6059L156.057 81.2084L163.212 75.5104L170.408 70.0047L177.628 64.7026L184.865 59.6092L185.724 59.008L193.044 54.0769L200.355 49.3761L201.419 48.7168L208.788 44.2032L216.121 39.9413L217.383 39.239L224.749 35.1925L232.048 31.4143L233.503 30.6855L240.807 27.1474L242.368 26.4352L249.659 23.149L256.851 20.1576L258.59 19.4386L265.737 16.7207L267.578 16.0332L274.667 13.5983L276.598 12.9489L283.615 10.8123L285.634 10.2012L287.673 9.65287L294.665 7.80915L296.785 7.30564L303.665 5.78852L305.865 5.33464L308.074 4.94365L314.889 3.7511L317.17 3.4148L323.838 2.57013L326.187 2.28863L328.541 2.07162L335.102 1.57963L337.515 1.42227L339.93 1.32942L346.36 1.2035L348.828 1.17383L351.298 1.20866L360.083 1.56305L362.593 1.73027L365.097 1.95885L371.234 2.60982L373.771 2.9081L376.302 3.27241L378.822 3.69818L384.788 4.76142L387.334 5.25685L389.865 5.81652L392.382 6.43949L398.145 7.93178L400.678 8.62592L403.192 9.38122L405.687 10.1961L411.215 12.1242L413.717 13.0119L416.195 13.9593L418.649 14.9664L421.079 16.0315L426.368 18.4118L428.791 19.5464L431.187 20.7389L433.552 21.9879L435.886 23.2947L440.899 26.1256L443.217 27.4954L445.501 28.9215L447.749 30.4005L449.962 31.9344L454.664 35.2125L456.851 36.8058L458.995 38.4506L461.101 40.1451L463.166 41.8893L467.524 45.6112L469.553 47.4082L471.536 49.2518L473.474 51.1435L475.367 53.0798L479.351 57.229M55.6621 478.042L57.6448 479.886L59.6705 481.683L64.0764 485.423L66.1453 487.17L68.2539 488.868L70.3989 490.513L72.5837 492.105L79.6034 496.975L81.8544 498.457L84.1418 499.883L86.4591 501.253L91.6304 504.158L93.9691 505.467L96.3394 506.717L98.7361 507.912L101.159 509.043L106.669 511.508L109.105 512.576L111.562 513.581L114.045 514.527L116.544 515.41L122.355 517.428L124.856 518.243L127.375 518.993L129.908 519.68L136.003 521.257L138.526 521.875L141.062 522.43L143.608 522.918L149.953 524.06L152.479 524.479L155.012 524.832L157.551 525.121L164.112 525.832L166.618 526.052L169.127 526.206L175.909 526.501L178.377 526.587L180.845 526.611L190.241 526.45L192.653 526.34L202.156 525.653L204.503 525.416L211.794 524.509L214.073 524.214L216.342 523.856L223.75 522.567L225.943 522.153L228.123 521.676L235.618 520.025L237.713 519.5L245.336 517.485L247.345 516.914L255.075 514.55L256.988 513.939L264.808 511.234L266.622 510.587L274.506 507.556L276.217 506.875L284.15 503.527L285.75 502.822L293.71 499.171L295.199 498.444L303.167 494.502L311.208 490.24L312.492 489.542L320.507 485.019L328.562 480.197L329.631 479.546L337.621 474.494L345.618 469.164L346.464 468.579L354.362 463.05L362.233 457.266L370.061 451.244L377.831 444.991L378.269 444.63L385.875 438.239L393.39 431.649L400.802 424.876L408.093 417.932L415.247 410.831L422.249 403.588L429.085 396.219L435.74 388.735L442.202 381.157L442.533 380.756L448.863 373.008L454.972 365.193L460.846 357.332L466.474 349.441L467.034 348.629L472.464 340.629L477.618 332.632L482.491 324.651L483.174 323.529L487.803 315.493L492.857 306.173L496.917 298.171L497.627 296.715L501.405 288.713L502.096 287.144L505.576 279.162L508.71 271.304L509.407 269.544L512.217 261.742L512.881 259.882L515.355 252.16L515.98 250.201L516.541 248.221L518.69 240.527L519.208 238.458L520.997 230.885L521.467 228.732L522.89 221.3L523.308 219.067L523.661 216.823L524.716 209.493L525.014 207.178L525.246 204.852L525.915 197.654L526.087 195.268L526.193 192.873L526.466 185.835L526.508 183.389L526.485 180.941L526.347 174.088L526.258 171.594L526.1 169.101L525.547 162.462L525.322 159.934L525.034 157.41L524.679 154.889L523.697 148.457L523.271 145.912L522.784 143.377L522.229 140.855L520.815 134.656L520.19 132.117L519.503 129.595L518.753 127.085L516.901 121.159L516.079 118.648L515.198 116.153L514.254 113.682L511.965 108.057L510.953 105.59L509.879 103.146L508.748 100.729L507.557 98.3353L504.824 93.0315L503.57 90.6582L502.257 88.311L500.885 85.9986L499.461 83.7161L496.295 78.7685L494.81 76.5143L493.271 74.2963L491.676 72.1149L490.031 69.9698L486.445 65.4099L484.746 63.3029L482.998 61.2375L481.199 59.2099L479.351 57.229M454.661 35.2159L458.985 38.9079L462.919 43.0108L466.452 47.5177L469.573 52.424L472.276 57.7243L474.552 63.4056L476.401 69.4581L477.812 75.8716L478.782 82.6395L479.308 89.7437L479.379 97.1793L478.994 104.931L478.153 112.984L476.856 121.324L475.109 129.936L472.909 138.797L470.26 147.896L467.166 157.211L463.628 166.729L459.648 176.43L455.237 186.291L450.404 196.295L445.16 206.422L439.51 216.647L433.469 226.952L427.05 237.312L420.259 247.708L413.109 258.115L405.617 268.515L397.799 278.884L389.674 289.198L381.26 299.438L372.569 309.58L363.624 319.601L354.443 329.478L345.04 339.193L335.441 348.722L325.667 358.046L315.735 367.146L305.671 376.004L295.497 384.601L285.233 392.914L274.9 400.928L264.523 408.625L254.121 415.989L243.719 423.006L233.337 429.664L222.999 435.95L212.726 441.85L202.54 447.353L192.464 452.446L182.517 457.119L172.718 461.366L163.09 465.177L153.648 468.553L144.414 471.486L135.403 473.971L126.638 476.005L118.132 477.583L109.903 478.703L101.969 479.366L94.34 479.574L87.0305 479.334L80.0505 478.645L73.4167 477.511L67.1356 475.937L61.2256 473.926L55.6934 471.481L50.5486 468.612L45.7965 465.331L41.4435 461.644L37.4914 457.563L33.9534 453.097M426.365 18.4163L431.306 21.204L435.886 24.4024L440.091 28.005L443.919 32.0085L447.35 36.4095L450.374 41.2031L452.991 46.3808L455.191 51.9332L456.967 57.8498L458.318 64.1208L459.238 70.7347L459.716 77.6832L459.754 84.953L459.344 92.5359L458.489 100.414L457.187 108.573L455.443 116.996L453.256 125.665L450.633 134.567L447.572 143.683L444.075 152.997L440.151 162.49L435.802 172.143L431.041 181.936L425.878 191.846L420.323 201.857L414.383 211.944L408.072 222.088L401.4 232.265L394.379 242.456L387.023 252.642L379.35 262.795L371.377 272.899L363.121 282.93L354.597 292.865L345.825 302.684L336.821 312.364L327.605 321.885L318.195 331.225L308.615 340.368L298.883 349.291L289.023 357.979L279.055 366.41L269.002 374.568L258.882 382.432L248.718 389.988L238.533 397.219L228.347 404.112L218.181 410.654L208.061 416.832L198.005 422.634L188.034 428.051L178.17 433.064L168.435 437.667L158.845 441.855L149.423 445.618L140.184 448.954L131.147 451.856L122.333 454.322L113.756 456.346L105.435 457.923L97.3882 459.053L89.628 459.734L82.166 459.97L75.0154 459.767L68.1929 459.126L61.7048 458.048L55.5678 456.539L49.7904 454.601L44.3857 452.237L39.3586 449.459L34.7158 446.274L30.4638 442.691L26.6111 438.723L23.1576 434.375L20.1114 429.659L17.4778 424.584M389.867 5.8167L395.598 7.30086L401.008 9.18916L406.088 11.4766L410.832 14.1633L415.224 17.2441L419.259 20.7158L422.921 24.5737L426.201 28.8174L429.092 33.4403L431.583 38.4326L433.673 43.786L435.354 49.4922L436.622 55.5395L437.473 61.9201L437.904 68.6216L437.903 75.6349L437.473 82.9495L436.61 90.5472L435.32 98.4168L433.602 106.541L431.46 114.904L428.893 123.491L425.906 132.285L422.502 141.271L418.683 150.427L414.457 159.737L409.836 169.186L404.824 178.746L399.437 188.403L393.682 198.134L387.568 207.922L381.108 217.741L374.313 227.576L367.196 237.404L359.774 247.204L352.063 256.955L344.083 266.635L340.094 271.277L340.091 271.283L340.088 271.286L335.844 276.226L327.368 285.705L318.671 295.052L309.768 304.247L300.681 313.267L291.428 322.099L282.035 330.721L272.514 339.115L262.892 347.266L253.187 355.152L243.421 362.758L233.616 370.066L223.787 377.063L213.958 383.735L204.15 390.07L194.386 396.058L184.684 401.682L175.066 406.934L165.548 411.8L156.157 416.273L146.907 420.341L137.817 424.005L128.906 427.254L120.188 430.088L111.686 432.502L103.414 434.49L95.3874 436.047L87.6239 437.171L80.1388 437.865L72.9417 438.129L66.0462 437.968L59.4637 437.382L53.2077 436.376L47.2878 434.955L41.7173 433.118L36.5048 430.87L31.6582 428.22L27.181 425.177L23.0847 421.75L19.3678 417.947L16.0418 413.78L13.1067 409.255L10.5724 404.382L8.44068 399.166L6.71136 393.627M357.577 1.45739L363.583 2.0935L369.306 3.11534L374.737 4.52494L379.86 6.31881L384.669 8.49706L389.154 11.0512L393.305 13.9829L397.112 17.2858L400.565 20.9578L403.654 24.9944L406.369 29.3922L408.705 34.1427L410.657 39.2361L412.223 44.664L413.394 50.4165L414.167 56.4839L414.538 62.8577L414.503 69.528L414.058 76.4832L413.203 83.7082L411.939 91.1901L410.273 98.9154L408.199 106.866L405.728 115.029L402.854 123.388L399.588 131.929L395.926 140.633L391.879 149.483L387.457 158.461L382.668 167.549L377.522 176.727L372.026 185.976L366.194 195.277L360.032 204.612L353.552 213.958L346.771 223.3L339.698 232.615L332.357 241.884L324.756 251.089L316.913 260.207L308.846 269.221L300.571 278.109L292.102 286.853L283.457 295.435L274.659 303.836L265.724 312.042L256.674 320.032L247.527 327.791L238.301 335.301L229.017 342.544L219.695 349.507L210.351 356.178L201.011 362.54L191.691 368.584L182.41 374.297L173.189 379.668L164.047 384.686L155.002 389.338L146.076 393.617L137.284 397.516L128.646 401.029L120.173 404.151L111.888 406.878L103.805 409.207L95.9386 411.13L88.3078 412.645L80.9269 413.752L73.8078 414.444L66.9636 414.732L60.406 414.615L54.1449 414.095L48.1952 413.174L42.5636 411.858L37.2631 410.146L32.3039 408.042L27.6942 405.556L23.4373 402.694L19.5365 399.465L16.0018 395.878L12.8364 391.944L10.0455 387.665L7.63381 383.054L5.60469 378.12L3.96155 372.872L2.70279 367.323L1.82486 361.49L1.3313 355.381M305.865 5.33122L312.616 4.15182L319.165 3.32373L325.498 2.84827L331.601 2.73074L337.467 2.97095L343.079 3.57046L348.422 4.53114L353.489 5.85789L358.268 7.54576L362.748 9.59141L366.924 11.9915L370.786 14.7444L374.323 17.8469L377.528 21.2938L380.39 25.0802L382.901 29.2079L385.058 33.6636L386.852 38.4422L388.283 43.5306L389.345 48.9254L390.034 54.6135L390.347 60.588L390.279 66.8375L389.827 73.3553L388.992 80.1234L387.776 87.1333L386.179 94.3681L384.208 101.815L381.863 109.458L379.141 117.284L376.052 125.28L372.595 133.427L368.782 141.713L364.616 150.115L360.109 158.621L355.27 167.207L350.105 175.864L344.624 184.568L338.84 193.304L332.758 202.049L326.396 210.79L319.765 219.508L312.879 228.182L305.757 236.795L298.409 245.329L290.851 253.768L283.101 262.088L275.169 270.276L267.076 278.309L258.839 286.179L250.474 293.864L242.003 301.351L233.441 308.621L224.808 315.661L216.12 322.453L207.396 328.984L198.654 335.242L189.913 341.213L181.191 346.888L172.506 352.257L163.877 357.305L155.321 362.028L146.857 366.407L138.502 370.439L130.272 374.118L122.185 377.434L114.253 380.387L106.495 382.971L98.9266 385.182L91.5606 387.016L84.4134 388.468L77.498 389.537L70.8294 390.222L64.4159 390.527L58.2691 390.453L52.4022 389.999L46.8219 389.172L41.5413 387.973L36.5706 386.404L31.9211 384.468L27.593 382.171L23.5994 379.522L19.9405 376.529L16.6211 373.2L13.6479 369.541L11.0258 365.561L8.7599 361.264L6.8534 356.664L5.30798 351.77L4.12539 346.592L3.29715 341.142L2.8317 335.433L2.72408 329.478L2.9742 323.285L3.58204 316.866L4.54773 310.233M240.811 27.1409L248.025 23.8894L255.137 20.9313L262.134 18.2678L269.003 15.9107L275.727 13.8635L282.298 12.1324L288.702 10.7246L294.925 9.63961L300.961 8.88097L306.791 8.4503L312.41 8.34769L317.806 8.57617L322.964 9.13943L327.877 10.0371L332.531 11.2695L336.914 12.8365L341.025 14.7348L344.853 16.9593L348.388 19.5101L351.623 22.3804L354.548 25.5707L357.158 29.0757L359.443 32.8902L361.399 37.0097L363.02 41.424L364.307 46.1265L365.255 51.1087L365.858 56.3595L366.113 61.8753L366.018 67.641L365.57 73.6554L364.77 79.8983L363.617 86.3614L362.118 93.0317L360.269 99.8958L358.079 106.942L355.545 114.154L352.675 121.52L349.465 129.026L345.927 136.656L342.069 144.396L337.896 152.229L333.418 160.137L328.642 168.109L323.58 176.122L318.237 184.162L312.623 192.217L306.752 200.262L300.635 208.288L294.287 216.275L287.718 224.205L280.947 232.063L273.983 239.832L266.841 247.494L259.535 255.032L252.079 262.435L244.493 269.683L236.892 276.675L236.793 276.764L228.993 283.663L221.112 290.365L213.163 296.856L205.162 303.12L197.132 309.146L189.084 314.922L181.037 320.434L173.006 325.677L165.01 330.638L157.064 335.307L149.185 339.675L141.389 343.731L133.693 347.468L126.113 350.88L118.663 353.961L111.353 356.709L104.204 359.118L97.2278 361.185L90.4366 362.904L83.8475 364.272L77.4705 365.289L71.3187 365.952L65.4004 366.265L59.729 366.228L54.3127 365.844L49.1596 365.114L44.2833 364.04L39.6918 362.626L35.3919 360.873L31.3933 358.786L27.6979 356.373L24.3123 353.643L21.2397 350.6L18.4885 347.253L16.0585 343.607L13.9583 339.672L12.1893 335.451L10.7532 330.957L9.65003 326.2L8.87982 321.193L8.43914 315.942L8.33152 310.461L8.55676 304.76L9.11169 298.848L9.99786 292.735L11.2104 286.437L12.7425 279.962L14.5926 273.329L16.7526 266.544L19.2222 259.625L21.9918 252.582L25.0626 245.427M170.067 248.111L167.484 249.478L167.163 249.647L164.017 251.206L162.242 252.024L162.238 252.024L162.146 252.067L162.141 252.068L162.114 252.082L162.058 252.108L162.03 252.12L160.915 252.635L157.859 253.932L154.859 255.096L151.919 256.128L149.044 257.019L146.241 257.775L143.515 258.388L140.871 258.858L138.317 259.186L135.852 259.371L133.484 259.415L131.216 259.317L129.053 259.078L126.999 258.697L125.059 258.176L123.236 257.515L121.533 256.716L119.954 255.78L118.499 254.712L117.17 253.513L115.973 252.186L114.907 250.73L113.977 249.153L113.183 247.455L112.527 245.64L112.009 243.714L111.628 241.676L111.388 239.535L111.285 237.292L111.32 234.955L111.497 232.525L111.813 230.006L112.267 227.405L112.859 224.727L113.584 221.974L114.442 219.158L115.433 216.279L116.554 213.342L117.801 210.356L119.176 207.325L120.673 204.25L122.292 201.145L124.026 198.009L125.873 194.854L127.827 191.68L129.891 188.497L132.054 185.306L134.319 182.118L136.677 178.938L139.124 175.769L141.658 172.619L144.27 169.493L146.957 166.396L149.716 163.335L152.542 160.313L155.426 157.34L158.368 154.418L161.357 151.554L164.393 148.753L167.468 146.017L170.575 143.357L173.711 140.771L176.866 138.269L180.038 135.855L183.221 133.533L186.41 131.305L189.597 129.178L192.775 127.153L195.941 125.236L199.09 123.429L202.214 121.74L205.304 120.166L208.36 118.717L211.373 117.39L214.342 116.187L217.255 115.116L220.111 114.172L222.903 113.363L225.626 112.688L228.273 112.151L230.841 111.75L233.327 111.487L235.722 111.364L238.024 111.377L240.229 111.531L242.331 111.824L244.325 112.258L246.209 112.83L247.978 113.539L249.629 114.389L251.16 115.369L252.566 116.484L253.848 117.729L254.999 119.106L256.016 120.61L256.899 122.238L257.643 123.989L258.251 125.859L258.718 127.843L259.047 129.939L259.234 132.14L259.279 134.447L259.183 136.852L258.941 139.353L258.559 141.946L258.032 144.622L257.368 147.38L256.561 150.211L255.619 153.111L254.539 156.076L253.324 159.099L251.983 162.16L251.975 162.175L251.958 162.212L251.951 162.228L251.873 162.389L250.495 165.297L249.861 166.548L249.826 166.616L248.89 168.459L247.58 170.876M252.378 160.682L252.326 160.826L252.301 160.894L252.242 161.056L252.222 161.113L252.22 161.118L252.176 161.242L252.171 161.253L251.924 161.931M252.548 160.102L252.374 160.64L252.266 160.966L252.261 160.981L252.243 161.043L252.18 161.235L252.175 161.25M252.6 159.757L252.255 160.963L252.247 160.991M252.576 159.614L252.23 161.05M161.097 252.311L160.925 252.351L158.814 252.728L156.772 252.992L154.803 253.142L152.909 253.18L151.094 253.104L149.363 252.917L147.718 252.617L146.163 252.205L144.7 251.68L143.334 251.045L142.065 250.303L140.896 249.455L139.826 248.501L138.86 247.446L138 246.288L137.248 245.033L136.604 243.683L136.069 242.237L135.645 240.7L135.33 239.076L135.126 237.369L135.035 235.581L135.054 233.718L135.184 231.778L135.426 229.768L135.779 227.692L136.241 225.554L136.811 223.357L137.488 221.106L138.27 218.807L139.156 216.463L140.145 214.077L141.237 211.653L142.426 209.199L143.713 206.716L145.093 204.21L146.562 201.687L148.119 199.149L149.764 196.604L151.488 194.054L153.295 191.505L155.175 188.963L157.13 186.428L159.152 183.909L161.238 181.409L163.383 178.933L165.587 176.487L167.843 174.072L170.151 171.695L172.501 169.361L174.893 167.072L177.318 164.832L179.776 162.649L182.26 160.523L184.765 158.459L187.289 156.461L189.827 154.536L192.373 152.683L194.92 150.907L197.468 149.211L200.009 147.598L202.541 146.072L205.057 144.633L207.553 143.29L210.025 142.041L212.466 140.888L214.874 139.834L217.245 138.885L219.572 138.036L221.853 137.292L224.084 136.654L226.257 136.124L228.371 135.703L230.42 135.394L232.401 135.195L234.314 135.107L236.149 135.13L237.906 135.261L239.583 135.506L241.171 135.862L242.672 136.329L244.081 136.908L245.397 137.593L246.614 138.387L247.734 139.288L248.751 140.292L249.665 141.398L250.473 142.607L251.174 143.914L251.765 145.32L252.246 146.818L252.615 148.409L252.875 150.087L253.021 151.85L253.054 153.695L252.975 155.616L252.781 157.616L252.473 159.686L252.166 161.241M252.102 161.481L252.062 161.583L251.483 163.021M516.535 248.227L514.014 256.095L511.123 264.124L507.865 272.295L504.246 280.591L500.276 289.001L495.961 297.5L491.31 306.073L486.334 314.706L481.037 323.376L475.432 332.068L469.528 340.764L463.337 349.444L456.874 358.09L450.152 366.687L443.185 375.214L435.988 383.653L428.576 391.986L420.962 400.197L413.16 408.263L405.191 416.173L397.072 423.908L388.814 431.453L380.445 438.792L371.976 445.91L363.426 452.79L354.814 459.421L346.156 465.783L337.472 471.867L328.777 477.659L320.095 483.155L311.44 488.338L302.83 493.198L294.287 497.726L285.824 501.915L277.461 505.753L269.214 509.233L261.099 512.352L253.134 515.107L245.329 517.492M526.186 192.877L525.505 200.18L524.419 207.733L522.928 215.518L521.035 223.523L518.739 231.732L516.044 240.129L512.953 248.699L509.47 257.423L505.599 266.286L501.352 275.267L496.736 284.352L491.76 293.515L486.433 302.745L480.763 312.016L474.764 321.311L468.445 330.612L461.816 339.897L454.896 349.15L447.699 358.351L440.24 367.476L432.533 376.508L424.595 385.43L416.444 394.217L408.091 402.855L399.559 411.32L390.865 419.604L382.028 427.682L373.07 435.54L364.005 443.161L354.854 450.53L345.639 457.628L336.377 464.439L327.084 470.952L317.787 477.155L308.501 483.035L299.247 488.582L290.045 493.783L280.913 498.632L271.871 503.112L262.938 507.215L254.129 510.938L245.465 514.273L236.961 517.218L228.634 519.767L220.501 521.917L212.581 523.663L204.887 525.003L197.431 525.932L190.234 526.454M523.268 145.912L524.255 152.378L524.821 159.163L524.962 166.25L524.672 173.633L523.953 181.295L522.805 189.221L521.233 197.395L519.234 205.805L516.814 214.429L513.974 223.253L510.716 232.262L507.04 241.437L502.959 250.759L498.48 260.207L493.61 269.764L488.363 279.411L482.746 289.126L476.766 298.888L470.439 308.677L463.774 318.473L456.784 328.256L449.484 338.004L441.895 347.697L434.027 357.314L425.901 366.835L417.531 376.238L408.934 385.5L400.129 394.607L391.133 403.537L381.968 412.267L372.653 420.788L363.208 429.073L353.656 437.111L344.012 444.88L334.303 452.367L324.542 459.55L314.756 466.418L304.963 472.96L295.187 479.162L285.443 485.011L275.756 490.5L266.144 495.61L256.632 500.335L247.234 504.662L237.971 508.588L228.861 512.106L219.921 515.211L211.172 517.901L202.629 520.167L194.311 522.009L186.231 523.424L178.409 524.404L170.858 524.956L163.588 525.08L156.615 524.779L149.949 524.06M514.247 113.688L516.117 119.673L517.559 126.008L518.575 132.685L519.153 139.69L519.289 147.015L518.979 154.645L518.224 162.569L517.025 170.769L515.383 179.228L513.301 187.929L510.778 196.858L507.82 205.995L504.428 215.327L500.605 224.831L496.359 234.493L491.7 244.287L486.638 254.195L481.18 264.198L475.338 274.271L469.124 284.398L462.546 294.553L455.617 304.718L448.351 314.87L440.766 324.989L432.877 335.052L424.701 345.036L416.257 354.922L407.563 364.686L398.63 374.308L389.483 383.766L380.138 393.041L370.617 402.112L360.944 410.964L351.138 419.573L341.218 427.926L331.207 436L321.128 443.78L310.999 451.245L300.844 458.386L290.682 465.185L280.538 471.632L270.433 477.716L260.388 483.42L250.422 488.736L240.56 493.648L230.82 498.15L221.222 502.233L211.785 505.896L202.528 509.127L193.467 511.927L184.624 514.29L176.014 516.212L167.654 517.687L159.565 518.714L151.758 519.296L144.245 519.435L137.041 519.132L130.157 518.393L123.608 517.22L117.403 515.617L111.554 513.588M499.462 83.716L502.208 89.0563L504.534 94.7739L506.429 100.863L507.888 107.311L508.909 114.109L509.483 121.243L509.606 128.707L509.273 136.483L508.484 144.563L507.24 152.923L505.546 161.551L503.401 170.431L500.805 179.542L497.764 188.871L494.279 198.395L490.354 208.102L485.996 217.969L481.214 227.975L476.021 238.101L470.424 248.322L464.435 258.618L458.064 268.97L451.321 279.354L444.22 289.748L436.775 300.132L429.003 310.481L420.923 320.774L412.549 330.99L403.901 341.106L394.996 351.097L385.849 360.946L376.484 370.626L366.919 380.122L357.174 389.409L347.272 398.473L337.238 407.291L327.088 415.845L316.846 424.115L306.535 432.084L296.175 439.735L285.791 447.051L275.4 454.02L265.03 460.63L254.701 466.865L244.433 472.717L234.249 478.166L224.173 483.207L214.224 487.826L204.421 492.02L194.784 495.78L185.335 499.101L176.085 501.98L167.062 504.412L158.278 506.394L149.752 507.92L141.504 508.986L133.545 509.598L125.889 509.753L118.549 509.464L111.541 508.723L104.873 507.541L98.5569 505.919L92.6122 503.86L87.0418 501.371L81.8556 498.457M166.556 249.938L166.495 249.916L165.422 249.423L164.423 248.845L163.502 248.182L162.661 247.44L161.899 246.615L161.218 245.712L160.621 244.735L160.111 243.678L159.686 242.55L159.344 241.351L159.091 240.084L158.924 238.751L158.843 237.354L158.849 235.897L158.944 234.381L159.126 232.811L159.394 231.188L159.747 229.516L160.186 227.799L160.708 226.038L161.312 224.241L161.998 222.406L162.765 220.539L163.613 218.644L164.537 216.722L165.538 214.781L166.611 212.82L167.757 210.846L168.971 208.86L170.252 206.867L171.598 204.871L173.008 202.878L174.476 200.887L176.001 198.905L177.581 196.934L179.211 194.976L180.889 193.04L182.612 191.125L184.377 189.236L186.179 187.378L188.018 185.553L189.888 183.762L191.786 182.013L193.709 180.305L195.654 178.642L197.613 177.031L199.588 175.47L201.574 173.965L203.566 172.519L205.561 171.134L207.553 169.811L209.543 168.553L211.524 167.364L213.493 166.246L215.446 165.197L217.381 164.227L219.29 163.331L221.174 162.514L223.027 161.777L224.849 161.121L226.633 160.546L228.376 160.053L230.077 159.647L231.728 159.327L233.332 159.092L234.88 158.945L236.373 158.883L237.807 158.91L239.18 159.021L240.489 159.22L241.731 159.508L242.902 159.88L244.002 160.341L245.027 160.886L245.978 161.512L246.851 162.223L247.644 163.016L248.357 163.887L248.988 164.84L249.533 165.868L249.842 166.609M181.949 240.75L181.976 240.276L182.11 239.062L182.312 237.806L182.579 236.513L182.913 235.184L183.311 233.823L183.774 232.431L184.299 231.012L184.888 229.569L185.537 228.102L186.249 226.614L187.019 225.112L187.844 223.594L188.727 222.066L189.663 220.53L190.65 218.99L191.689 217.444L192.775 215.901L193.91 214.362L195.088 212.826L196.307 211.302L197.565 209.789L198.862 208.29L200.194 206.809L201.559 205.348L202.952 203.912L204.375 202.499L205.821 201.116L207.287 199.763L208.776 198.442L210.278 197.159L211.795 195.913L213.324 194.709L214.86 193.548L216.4 192.431L217.946 191.363L219.488 190.341L221.026 189.372L222.56 188.458L224.083 187.595L225.595 186.788L227.09 186.041L228.57 185.354L230.027 184.728L231.462 184.161L232.871 183.659L234.251 183.22L235.599 182.846L236.914 182.538L238.191 182.294L239.43 182.119L240.628 182.011L240.648 182.011M167.493 249.473L165.592 250.414L162.57 251.805M197.63 228.845L194.53 231.389L191.013 234.157L187.483 236.822L184.142 239.235L183.944 239.378M184.133 239.238L181.947 240.749L181.329 241.175L177.885 243.445L174.452 245.6M175.291 245.073L172.282 246.864L168.982 248.722M467.032 348.633L461.337 356.617L455.396 364.569L449.216 372.475L442.81 380.315L436.195 388.073L429.38 395.736L422.381 403.282L415.21 410.698L407.884 417.967L400.42 425.077L392.831 432.014L385.137 438.76L377.349 445.303L369.487 451.63L361.568 457.724L353.604 463.574L345.616 469.168M230.598 195.464L230.295 195.827L227.625 199.041L224.564 202.582L221.418 206.082L218.193 209.535L214.899 212.936L211.536 216.275L208.116 219.547L204.644 222.743L201.129 225.861L197.624 228.849L197.576 228.89M240.785 181.839L240.667 182.006L240.257 182.593L238.297 185.38L235.698 188.92L232.993 192.446L230.295 195.824M244.67 175.853L244.421 176.243L242.473 179.291L240.653 182.009L240.26 182.594M247.9 170.329L247.582 170.879L245.997 173.64L244.418 176.245M251.169 163.793L249.862 166.55M251.714 162.514L251.49 163.019L250.819 164.552M160.936 252.371L159.302 252.879L159.08 252.949M161.541 252.155L161.432 252.195L161.43 252.197L161.102 252.309L161.081 252.317L160.943 252.365L160.629 252.475L159.612 252.833M161.427 252.197L161.124 252.252M162.564 251.756L161.544 252.15L161.454 252.187L161.453 252.185L161.239 252.27L161.207 252.281L161.181 252.291L161.077 252.333L161.053 252.343L161.048 252.344L161.037 252.349L160.368 252.608M164.022 251.139L162.569 251.757L162.049 251.975L161.955 252.017L161.625 252.157L161.622 252.158L161.461 252.225L161.432 252.239L161.427 252.24L161.418 252.245L161.357 252.27M342.459 71.9299L342.025 77.386L341.273 83.0508L340.201 88.9128L338.817 94.9619L337.119 101.185L335.11 107.57L332.791 114.106L330.165 120.78L327.239 127.579L324.015 134.49L320.502 141.498L316.707 148.589L312.636 155.751L308.298 162.965L303.701 170.218L298.853 177.494L293.762 184.782L288.436 192.065L282.891 199.327L277.138 206.554L271.188 213.729L265.055 220.84L258.747 227.87L252.279 234.805L245.667 241.629L238.919 248.328L232.053 254.892L225.085 261.304L218.025 267.552L210.891 273.622L203.699 279.502L196.461 285.181L189.194 290.645L181.911 295.881L174.628 300.885L167.36 305.642L160.121 310.147L152.929 314.391L145.795 318.361L138.739 322.051L131.771 325.455L124.904 328.566L118.154 331.377L111.533 333.89L105.053 336.096L98.7294 337.991L92.5726 339.576L86.5964 340.841L80.8107 341.791L75.2287 342.42L69.8588 342.731L64.709 342.726L59.7879 342.407L55.1087 341.776L50.6761 340.832L46.5021 339.576L42.5914 338.014L38.9523 336.151L35.5865 333.991L32.5024 331.543L29.7015 328.808L27.1921 325.798L24.9741 322.514L23.0544 318.967L21.4361 315.159L20.1192 311.103L19.1039 306.804L18.3916 302.276L17.9809 297.529L17.8716 292.57L18.0637 287.405L18.5573 282.052L19.3508 276.511L20.4423 270.802L21.8287 264.93L23.5016 258.91L25.4578 252.754L27.6955 246.471L30.2099 240.074L32.9944 233.573L36.047 226.982L39.3598 220.31L42.926 213.57L46.7373 206.777L50.7855 199.94L55.0656 193.073L59.5659 186.187L64.2833 179.296L69.2077 172.408L74.3309 165.539L79.6413 158.698L85.1322 151.898L90.7887 145.152L96.6059 138.47L102.569 131.864L108.673 125.347L114.904 118.93L121.253 112.621L127.708 106.434L134.259 100.38L140.891 94.4666L147.594 88.7041L154.359 83.1055L161.172 77.6808L168.022 72.4401L174.896 67.3915L181.784 62.5415L188.674 57.9037L195.551 53.4811L202.406 49.2839L209.223 45.3219L215.993 41.5999L222.705 38.1315L229.343 34.9181L235.899 31.9664L242.359 29.2798L248.711 26.8665L254.948 24.7313L261.051 22.8778L267.013 21.3127L272.818 20.0422L278.462 19.0665L283.928 18.3875L289.21 18.0081L294.297 17.9269L299.18 18.1456L303.844 18.669L308.281 19.4956L312.485 20.6286L316.442 22.0647L320.149 23.8004L323.598 25.8344L326.78 28.1618L329.688 30.7788L332.317 33.6858L334.654 36.8777L336.7 40.351L338.444 44.0995L339.888 48.1146L341.025 52.3879L341.854 56.9149L342.373 61.6868L342.573 66.6942L342.459 71.9299ZM320.39 79.5244L319.979 84.3874L319.285 89.4377L318.311 94.6619L317.057 100.05L315.525 105.591L313.718 111.277L311.637 117.094L309.284 123.032L306.665 129.08L303.783 135.228L300.644 141.461L297.255 147.765L293.623 154.131L289.757 160.544L285.659 166.991L281.339 173.458L276.806 179.932L272.067 186.404L267.132 192.855L262.014 199.276L257.245 205.022L256.724 205.653L251.269 211.968L245.662 218.215L239.915 224.376L234.036 230.44L228.042 236.395L221.941 242.227L215.75 247.925L209.479 253.481L203.14 258.879L196.749 264.11L190.319 269.162L183.863 274.021L177.391 278.684L170.918 283.14L164.46 287.378L158.026 291.394L151.633 295.177L145.292 298.721L139.016 302.016L132.82 305.059L126.711 307.841L120.705 310.359L114.813 312.61L109.046 314.591L103.414 316.3L97.9314 317.728L92.6062 318.879L87.4514 319.744L82.4757 320.327L77.6855 320.629L73.0907 320.648L68.7013 320.387L64.5222 319.849L60.5635 319.034L56.8317 317.942L53.335 316.575L50.0786 314.939L47.069 313.039L44.3062 310.879L41.795 308.467L39.5408 305.806L37.5481 302.902L35.8205 299.76L34.3628 296.384L33.1736 292.786L32.2527 288.974L31.6017 284.954L31.2207 280.733L31.1081 276.324L31.2654 271.731L31.6928 266.967L32.3885 262.034L33.3492 256.949L34.5748 251.718L36.0573 246.353L37.7949 240.862L39.7826 235.26L42.0187 229.553L44.4983 223.754L47.218 217.867L50.1731 211.91L53.3516 205.893L56.7538 199.824L60.3664 193.713L64.186 187.578L68.2077 181.423L72.4215 175.261L76.8225 169.105L81.4007 162.963L86.1496 156.846L91.0558 150.764L96.1161 144.729L101.317 138.753L106.651 132.843L112.11 127.013L117.684 121.273L123.363 115.63L129.138 110.098L134.996 104.683L140.929 99.3926L146.925 94.2412L152.975 89.2357L159.068 84.3841L165.194 79.6999L171.339 75.1879L177.499 70.8565L183.656 66.7106L189.803 62.7634L195.926 59.015L202.02 55.4787L208.066 52.1593L214.059 49.0652L219.987 46.2013L225.837 43.5742L231.601 41.1825L237.269 39.0358L242.83 37.1393L248.271 35.4944L253.585 34.1096L258.756 32.9868L263.781 32.1288L268.648 31.5356L273.347 31.2094L277.871 31.1513L282.209 31.3618L286.355 31.8438L290.295 32.5974L294.024 33.6226L297.534 34.9197L300.818 36.4816L303.869 38.3102L306.683 40.3989L309.252 42.7494L311.571 45.3532L313.632 48.2122L315.429 51.3213L316.96 54.6736L318.22 58.263L319.207 62.0826L319.921 66.1258L320.358 70.3861L320.516 74.8534L320.39 79.5244ZM300.445 90.2111L300.069 94.4663L299.446 98.8822L298.576 103.449L297.465 108.158L296.113 112.998L294.521 117.962L292.691 123.042L290.626 128.225L288.33 133.502L285.802 138.866L283.056 144.302L280.091 149.801L276.918 155.35L273.537 160.94L269.959 166.559L266.187 172.195L262.23 177.835L258.096 183.474L253.793 189.095L249.329 194.689L244.716 200.243L239.962 205.745L235.076 211.188L230.067 216.555L224.947 221.837L219.723 227.025L214.407 232.105L209.013 237.072L203.551 241.914L198.031 246.62L192.464 251.18L186.862 255.586L181.233 259.826L175.595 263.894L169.957 267.783L164.328 271.484L158.72 274.992L153.146 278.3L147.619 281.399L142.144 284.282L136.738 286.946L131.411 289.384L126.17 291.594L121.026 293.571L115.99 295.314L111.072 296.82L106.281 298.083L101.628 299.102L97.1208 299.876L92.7695 300.404L88.5772 300.684L84.5555 300.72L80.7111 300.513L77.0505 300.063L73.5803 299.369L70.3073 298.435L67.238 297.26L64.3791 295.849L61.7322 294.209L59.3007 292.341L57.091 290.25L55.1051 287.943L53.3476 285.42L51.8205 282.691L50.5268 279.757L49.4717 276.625L48.6501 273.306L48.0638 269.801L47.7126 266.124L47.6 262.277L47.7209 258.271L48.0804 254.112L48.675 249.803L49.5032 245.361L50.5616 240.788L51.847 236.097L53.3576 231.297L55.0868 226.394L57.0347 221.398L59.198 216.32L61.5732 211.168L64.1505 205.951L66.9316 200.678L69.9048 195.36L73.0669 190.008L76.4094 184.628L79.9292 179.233L83.6196 173.83L87.4757 168.43L91.4875 163.044L95.6499 157.679L99.9515 152.344L104.386 147.051L108.947 141.807L113.625 136.626L118.414 131.51L123.301 126.476L128.284 121.527L133.349 116.673L138.489 111.921L143.693 107.283L148.952 102.766L154.261 98.3787L159.603 94.1268L164.976 90.0223L170.368 86.0684L175.766 82.2737L181.164 78.6446L186.554 75.1861L191.922 71.908L197.261 68.8156L202.559 65.9119L207.808 63.2105L212.999 60.7093L218.123 58.4152L223.168 56.3315L228.127 54.4631L232.992 52.8116L237.751 51.3855L242.394 50.1847L246.916 49.214L251.303 48.4769L255.554 47.9734L259.656 47.7034L263.602 47.667L267.385 47.869L270.999 48.3063L274.431 48.982L277.676 49.8947L280.73 51.0444L283.586 52.4291L286.236 54.0422L288.679 55.886L290.906 57.9564L292.913 60.2488L294.695 62.7633L296.247 65.4946L297.564 68.4379L298.646 71.5867L299.491 74.9359L300.093 78.4806L300.455 82.2108L300.574 86.1232L300.445 90.2111ZM283.271 103.626L282.935 107.271L282.388 111.054L281.635 114.965L280.674 118.994L279.508 123.138L278.136 127.385L276.564 131.726L274.79 136.157L272.821 140.667L270.654 145.249L268.301 149.892L265.765 154.588L263.048 159.325L260.158 164.097L257.099 168.892L253.877 173.7L251.126 177.621L250.496 178.516L246.966 183.324L243.291 188.119L239.483 192.891L235.546 197.627L231.491 202.321L227.322 206.96L223.048 211.539L218.681 216.046L214.225 220.468L209.693 224.805L205.092 229.042L200.432 233.171L195.725 237.186L190.974 241.079L186.197 244.839L181.397 248.459L177.591 251.209L177.561 251.232L176.587 251.935L171.775 255.256L166.972 258.419L162.186 261.419L157.428 264.246L152.709 266.898L148.034 269.366L143.416 271.649L138.863 273.737L134.384 275.636L129.986 277.333L125.68 278.834L121.474 280.131L117.375 281.223L113.391 282.105L109.53 282.78L105.801 283.242L102.21 283.497L98.7619 283.54L95.4624 283.378L92.3219 283.007L89.3405 282.427L86.5262 281.643L83.8892 280.653L81.4295 279.462L79.1487 278.072L77.0534 276.487L75.1469 274.713L73.4309 272.752L71.9087 270.607L70.5852 268.28L69.4622 265.782L68.5413 263.112L67.8208 260.278L67.3023 257.288L66.986 254.146L66.8732 250.86L66.9628 247.434L67.2559 243.878L67.7495 240.194L68.4452 236.391L69.3396 232.475L70.4279 228.459L71.7099 224.348L73.1824 220.145L74.8422 215.865L76.6874 211.512L78.7147 207.093L80.9177 202.618L83.2946 198.094L85.8388 193.532L88.5453 188.938L91.4092 184.321L94.4239 179.69L97.5875 175.052L100.894 170.414L104.334 165.788L107.903 161.181L111.597 156.6L115.402 152.053L119.318 147.551L123.333 143.099L127.444 138.706L131.643 134.381L135.921 130.133L140.271 125.965L144.685 121.886L149.156 117.905L153.673 114.028L158.229 110.263L162.819 106.614L167.432 103.091L172.06 99.7017L176.698 96.4486L181.332 93.3379L185.957 90.3763L190.565 87.5704L195.145 84.9218L199.692 82.4389L204.195 80.1282L208.648 77.9916L213.041 76.0336L217.365 74.2564L221.616 72.6663L225.783 71.2616L229.859 70.0508L233.836 69.0355L237.707 68.2189L241.462 67.601L245.096 67.1837L248.603 66.9667L251.975 66.9535L255.209 67.1423L258.293 67.5332L261.223 68.1278L263.992 68.9261L266.593 69.9266L269.026 71.1275L271.284 72.5272L273.361 74.1206L275.254 75.9078L276.957 77.8855L278.468 80.0521L279.779 82.4041L280.892 84.9351L281.802 87.6433L282.509 90.5204L283.011 93.5632L283.307 96.765L283.394 100.121L283.271 103.626ZM269.378 119.34L269.089 122.397L268.624 125.566L267.984 128.839L267.175 132.213L266.194 135.678L265.041 139.23L263.723 142.86L262.235 146.564L260.584 150.332L258.772 154.159L256.804 158.038L254.682 161.958L252.411 165.912L251.186 167.936L249.996 169.894L247.442 173.896L244.752 177.908L241.931 181.924L238.985 185.935L235.92 189.933L232.743 193.912L229.459 197.862L226.076 201.774L222.6 205.645L219.038 209.462L215.396 213.217L211.681 216.906L207.903 220.521L204.066 224.053L200.181 227.498L196.255 230.847L192.296 234.094L188.311 237.231L184.307 240.251L180.297 243.151L176.282 245.924L172.274 248.564L168.28 251.07L167.924 251.28L167.906 251.292L167.898 251.297L164.31 253.434L160.37 255.648L156.465 257.714L152.609 259.622L148.805 261.373L145.063 262.961L141.387 264.387L137.786 265.646L134.267 266.734L130.836 267.654L127.502 268.401L124.27 268.972L121.145 269.368L118.135 269.588L115.245 269.636L112.477 269.509L109.838 269.209L107.334 268.735L104.972 268.089L102.752 267.271L100.68 266.285L98.7589 265.133L96.993 263.817L95.3831 262.34L93.9321 260.71L92.6451 258.923L91.5204 256.987L90.5647 254.901L89.7796 252.675L89.1601 250.31L88.7111 247.814L88.4329 245.19L88.3236 242.444L88.3849 239.58L88.6134 236.605L89.0159 233.522L89.5841 230.34L90.3212 227.062L91.2206 223.698L92.284 220.253L93.5064 216.735L94.8878 213.147L96.4233 209.498L98.1144 205.793L99.9546 202.041L101.939 198.248L104.064 194.42L106.328 190.566L108.725 186.692L111.248 182.804L113.898 178.911L116.666 175.021L119.551 171.138L122.544 167.27L125.639 163.424L128.83 159.61L132.115 155.828L135.484 152.091L138.933 148.404L142.456 144.775L146.047 141.207L149.699 137.711L153.403 134.289L157.156 130.949L160.948 127.698L164.774 124.537L168.627 121.48L172.499 118.528L176.383 115.687L180.274 112.963L184.163 110.359L188.046 107.881L191.912 105.532L195.755 103.316L199.568 101.242L203.344 99.3141L207.078 97.5319L210.76 95.9004L214.386 94.4211L217.947 93.0961L221.437 91.9316L224.852 90.9279L228.182 90.0897L231.42 89.419L234.564 88.9154L237.603 88.5791L240.537 88.4119L243.356 88.4152L246.057 88.5858L248.633 88.9287L251.078 89.4421L253.389 90.1262L255.56 90.9793L257.587 91.9996L259.466 93.1856L261.197 94.5355L262.772 96.0445L264.186 97.714L265.439 99.5394L266.529 101.52L267.449 103.651L268.2 105.928L268.781 108.345L269.19 110.901L269.427 113.589L269.49 116.401L269.378 119.34Z" stroke="url(#paint0_angular_26_30559)" stroke-width="2" stroke-miterlimit="10" stroke-linecap="round" stroke-linejoin="round"/>
<defs>
<radialGradient id="paint0_angular_26_30559" cx="0" cy="0" r="1" gradientUnits="userSpaceOnUse" gradientTransform="translate(263.841 263.892) rotate(90) scale(262.718 262.667)">
<stop offset="0.0993526" stop-color="#FFC876"/>
<stop offset="0.427081" stop-color="#79FFF7"/>
<stop offset="0.718753" stop-color="#9F53FF"/>
<stop offset="1" stop-color="#FF98E2"/>
</radialGradient>
</defs>
</svg>
