<svg width="516" height="517" viewBox="0 0 516 517" fill="none" xmlns="http://www.w3.org/2000/svg">
<path d="M396.74 71.743L394.854 70.1379L392.935 68.5655L390.984 67.0247L389.002 65.5188L386.989 64.0456L384.948 62.6083L382.879 61.207L380.784 59.8416L378.664 58.5133L376.518 57.2242L374.351 55.9744L372.162 54.7627L369.952 53.5924L367.724 52.4624L365.477 51.3749L363.214 50.3288L360.935 49.3252L358.642 48.3663L356.336 47.4499L354.019 46.5793L351.691 45.7533L349.355 44.972L347.01 44.2365L344.66 43.5478L342.305 42.906L339.946 42.3121L337.585 41.7651L335.222 41.2661L332.861 40.8149L330.501 40.4128L328.144 40.0587L325.791 39.7536L323.444 39.4975L321.103 39.2916L318.773 39.1346L316.45 39.0279L314.14 38.9712L311.842 38.9636L309.557 39.0061L307.289 39.0987L305.035 39.2415L302.8 39.4332L300.584 39.6762L298.388 39.9683L296.214 40.3104L294.062 40.7016L291.935 41.1418L289.833 41.6311L287.757 42.1705L285.711 42.7578L283.693 43.3941L281.704 44.0785L279.748 44.8107L277.825 45.5898L275.934 46.4158L274.08 47.2886L272.261 48.2083L270.481 49.1727L268.737 50.1839L267.034 51.2387L265.371 52.3371L263.751 53.4801L262.172 54.6657L260.637 55.8937L259.146 57.1632L257.701 58.4741L256.303 59.8242L254.952 61.2146L253.65 62.6442L252.397 64.1109L251.192 65.6147L250.04 67.1554L248.938 68.7311L247.889 70.3416L246.893 71.986L245.951 73.663L245.063 75.3716L244.229 77.1107L243.453 78.8803L242.731 80.6772L242.066 82.5023L241.458 84.3548L240.908 86.2323L240.417 88.1348L239.983 90.0592L239.609 92.0075L239.293 93.9755L239.037 95.963L238.84 97.9702L238.704 99.9948L238.628 102.035L238.611 104.09L238.655 106.159L238.759 108.24L238.924 110.332L239.148 112.436L239.434 114.546L239.779 116.665L240.185 118.788L240.651 120.917L241.176 123.049L241.76 125.182L242.404 127.317L243.106 129.452L243.867 131.583L244.686 133.711L245.563 135.835L246.496 137.952L247.486 140.063L248.533 142.164L249.634 144.255L250.79 146.335L252.001 148.401L253.265 150.454L254.581 152.492L255.95 154.512L257.369 156.514L258.839 158.497L260.357 160.459L261.924 162.4L263.538 164.317L265.198 166.21L266.904 168.077L268.654 169.918L270.448 171.73L272.283 173.512L274.158 175.266L276.074 176.986L278.029 178.675L280.02 180.329L282.047 181.95L284.109 183.534L286.205 185.08L288.332 186.59L290.489 188.061L292.676 189.491L294.891 190.881L297.133 192.23L299.399 193.535L301.689 194.797L304.001 196.015L306.334 197.189L308.686 198.317L311.054 199.398L313.439 200.432L315.839 201.418L318.251 202.356L320.675 203.245L323.108 204.084L325.55 204.874L327.999 205.613L330.453 206.302L332.91 206.939L335.369 207.523L337.829 208.056L340.287 208.537L342.742 208.965L345.194 209.34L347.639 209.662L350.077 209.931L352.505 210.146L354.924 210.308L357.33 210.416L359.723 210.472L362.101 210.473L364.462 210.421L366.805 210.315L369.128 210.157L371.431 209.946L373.711 209.681L375.967 209.363L378.198 208.993L380.403 208.571L382.579 208.097L384.727 207.572L386.843 206.997L388.929 206.37L390.98 205.694L392.997 204.967L394.98 204.191L396.925 203.367L398.832 202.494L400.699 201.576L402.528 200.609L404.315 199.597L406.059 198.54L407.76 197.437L409.418 196.291L411.029 195.101L412.595 193.87L414.113 192.597L415.584 191.283L417.006 189.929L418.379 188.537L419.701 187.106L420.973 185.639L422.193 184.136L423.36 182.596L424.475 181.024L425.536 179.417L426.543 177.78L427.495 176.11L428.392 174.41L429.233 172.682L430.019 170.927L430.749 169.144L431.421 167.335L432.038 165.502L432.596 163.646L433.097 161.767L433.54 159.868L433.925 157.948L434.252 156.009L434.523 154.053L434.734 152.08L434.887 150.092L434.981 148.091L435.017 146.076L434.995 144.05L434.916 142.013L434.779 139.967L434.582 137.913L434.331 135.852L434.02 133.786L433.653 131.715L433.229 129.641L432.749 127.566L432.211 125.489L431.62 123.413L430.972 121.338L430.27 119.266L429.513 117.198L428.703 115.136L427.839 113.08L426.922 111.031L425.953 108.991L424.932 106.961L423.861 104.943L422.74 102.936L421.569 100.943L420.348 98.9629L419.08 97.0004L417.765 95.0531L416.402 93.1244L414.994 91.2142L413.541 89.3237L412.044 87.4549L410.504 85.6068L408.922 83.7827L407.297 81.9826L405.633 80.2075L403.929 78.4586L402.187 76.7369L400.407 75.0425L398.592 73.3775L396.74 71.743Z" fill="#F7FBFA"/>
<path d="M373.498 86.0288L374.565 86.8701L375.659 87.683L376.726 88.5057L377.716 89.3763L378.594 90.3232L379.399 91.3246L380.189 92.3456L381.022 93.3536L381.932 94.3234L382.877 95.2736L383.793 96.2281L384.616 97.2132L385.304 98.2484L385.904 99.3195L386.482 100.408L387.109 101.491L387.827 102.557L388.587 103.608L389.316 104.66L389.942 105.723L390.414 106.808L390.784 107.91L391.131 109.024L391.527 110.143L392.026 111.263L392.572 112.379L393.087 113.49L393.489 114.591L393.726 115.684L393.854 116.776L393.952 117.873L394.103 118.987L394.363 120.119L394.673 121.258L394.951 122.386L395.115 123.485L395.107 124.545L394.985 125.584L394.831 126.624L394.731 127.688L394.739 128.791L394.8 129.91L394.83 131.013L394.747 132.068L394.494 133.056L394.125 134.001L393.724 134.943L393.373 135.917L393.128 136.948L392.935 138.005L392.715 139.041L392.387 140.012L391.896 140.888L391.293 141.704L390.659 142.51L390.069 143.356L389.579 144.276L389.139 145.229L388.674 146.16L388.111 147.009L387.4 147.739L386.586 148.392L385.74 149.029L384.934 149.714L384.215 150.487L383.541 151.3L382.848 152.088L382.071 152.781L381.165 153.335L380.17 153.799L379.145 154.242L378.153 154.737L377.232 155.332L376.349 155.974L375.454 156.587L374.49 157.096L373.424 157.452L372.286 157.706L371.121 157.936L369.979 158.222L368.891 158.613L367.833 159.056L366.767 159.471L365.654 159.776L364.47 159.918L363.232 159.951L361.972 159.957L360.725 160.019L359.511 160.193L358.318 160.42L357.123 160.62L355.905 160.708L354.647 160.629L353.357 160.438L352.054 160.218L350.75 160.054L349.457 160L348.176 160.002L346.898 159.978L345.621 159.844L344.339 159.547L343.051 159.138L341.754 158.7L340.445 158.314L339.125 158.035L337.805 157.812L336.495 157.564L335.21 157.214L333.956 156.708L332.719 156.097L331.48 155.456L330.218 154.864L328.924 154.372L327.616 153.93L326.326 153.469L325.084 152.916L323.907 152.222L322.772 151.431L321.64 150.613L320.478 149.838L319.258 149.15L318.016 148.51L316.797 147.854L315.646 147.12L314.595 146.265L313.606 145.326L312.628 144.363L311.609 143.435L310.514 142.58L309.386 141.766L308.285 140.942L307.273 140.056L306.388 139.074L305.585 138.025L304.8 136.954L303.965 135.909L303.038 134.922L302.069 133.969L301.13 133.01L300.295 132.007L299.611 130.937L299.027 129.818L298.464 128.684L297.846 127.565L297.123 126.484L296.35 125.428L295.609 124.373L294.985 123.295L294.528 122.18L294.184 121.036L293.866 119.88L293.49 118.731L292.997 117.601L292.45 116.485L291.937 115.377L291.545 114.268L291.334 113.15L291.242 112.025L291.181 110.894L291.059 109.76L290.817 108.624L290.515 107.494L290.246 106.376L290.102 105.278L290.143 104.202L290.307 103.14L290.503 102.077L290.638 101.002L290.654 99.9058L290.608 98.8063L290.593 97.7231L290.699 96.6782L290.989 95.6866L291.401 94.7266L291.846 93.7731L292.234 92.7979L292.503 91.7845L292.713 90.7569L292.951 89.7501L293.303 88.801L293.828 87.9292L294.471 87.1087L295.145 86.2991L295.767 85.4611L296.28 84.5676L296.735 83.6523L297.214 82.762L297.796 81.9426L298.536 81.2245L299.384 80.5729L300.261 79.9376L301.093 79.2664L301.826 78.5276L302.508 77.7594L303.209 77.0173L303.997 76.3591L304.922 75.8208L305.939 75.3621L306.986 74.923L307.994 74.4446L308.92 73.8867L309.799 73.2939L310.693 72.7284L311.656 72.2555L312.729 71.9155L313.879 71.6648L315.052 71.4371L316.199 71.1669L317.28 70.8116L318.324 70.415L319.375 70.0478L320.476 69.7764L321.657 69.6468L322.895 69.6119L324.151 69.6032L325.39 69.5498L326.585 69.4081L327.754 69.224L328.922 69.066L330.118 69.0061L331.362 69.09L332.641 69.2708L333.934 69.479L335.22 69.6446L336.484 69.7209L337.732 69.7547L338.973 69.8124L340.219 69.966L341.479 70.2592L342.752 70.6471L344.033 71.0633L345.318 71.4404L346.604 71.7324L347.883 71.9808L349.15 72.2533L350.4 72.6129L351.63 73.1032L352.85 73.684L354.071 74.292L355.308 74.8652L356.567 75.361L357.831 75.8165L359.076 76.2916L360.283 76.844L361.437 77.5142L362.559 78.265L363.675 79.0419L364.819 79.7894L366.003 80.4705L367.205 81.1166L368.384 81.7769L369.503 82.5027L370.538 83.3265L371.52 84.2189L372.492 85.1342L373.498 86.0288Z" fill="#F7FBFA"/>
<path d="M413.832 63.6066L411.135 61.3162L408.391 59.0704L405.602 56.8725L402.767 54.7215L399.893 52.6184L396.976 50.5666L394.021 48.5649L391.029 46.6165L387.999 44.7205L384.936 42.879L381.84 41.093L378.714 39.3626L375.558 37.69L372.376 36.0751L369.167 34.5201L365.935 33.024L362.68 31.5889L359.404 30.2159L356.11 28.904L352.8 27.6563L349.474 26.4718L346.135 25.3528L342.785 24.298L339.425 23.3085L336.058 22.3856L332.684 21.5302L329.308 20.7424L325.927 20.0221L322.547 19.3694L319.169 18.7864L315.795 18.2721L312.425 17.8275L309.063 17.4537L305.71 17.1497L302.368 16.9155L299.038 16.7531L295.723 16.6605L292.424 16.6387L289.145 16.6888L285.885 16.8098L282.648 17.0026L279.435 17.2663L276.247 17.6009L273.087 18.0073L269.958 18.4846L266.859 19.0316L263.792 19.6505L260.762 20.3392L257.768 21.0987L254.812 21.9279L251.897 22.8269L249.024 23.7956L246.194 24.8319L243.411 25.9368L240.674 27.1104L237.986 28.3504L235.349 29.6569L232.763 31.0299L230.232 32.4694L227.756 33.972L225.337 35.5401L222.976 37.1702L220.674 38.8635L218.435 40.6179L216.259 42.4333L214.146 44.3075L212.101 46.2417L210.121 48.2336L208.211 50.2811L206.369 52.3852L204.598 54.5439L202.901 56.7548L201.276 59.0191L199.726 61.3336L198.252 63.6982L196.854 66.1107L195.534 68.5701L194.293 71.0752L193.132 73.624L192.051 76.2163L191.052 78.8489L190.134 81.5219L189.3 84.233L188.55 86.9811L187.884 89.763L187.302 92.5787L186.806 95.4271L186.396 98.3039L186.073 101.21L185.836 104.142L185.687 107.099L185.626 110.079L185.651 113.08L185.766 116.1L185.967 119.137L186.256 122.19L186.634 125.257L187.1 128.335L187.654 131.423L188.295 134.519L189.024 137.621L189.84 140.727L190.742 143.835L191.73 146.941L192.806 150.047L193.965 153.148L195.211 156.243L196.54 159.33L197.952 162.407L199.447 165.472L201.023 168.522L202.68 171.557L204.419 174.574L206.234 177.57L208.128 180.544L210.099 183.494L212.145 186.418L214.265 189.314L216.458 192.181L218.723 195.015L221.057 197.816L223.46 200.581L225.931 203.309L228.466 205.997L231.067 208.645L233.729 211.249L236.451 213.81L239.233 216.324L242.072 218.79L244.966 221.205L247.914 223.57L250.911 225.882L253.96 228.14L257.055 230.341L260.196 232.486L263.38 234.572L266.605 236.597L269.869 238.56L273.171 240.462L276.507 242.299L279.875 244.07L283.273 245.775L286.7 247.413L290.153 248.982L293.629 250.481L297.126 251.91L300.642 253.267L304.174 254.551L307.721 255.763L311.279 256.901L314.848 257.964L318.422 258.951L322.001 259.863L325.584 260.698L329.166 261.457L332.745 262.138L336.321 262.741L339.888 263.267L343.447 263.714L346.995 264.083L350.528 264.374L354.044 264.584L357.543 264.717L361.02 264.771L364.474 264.746L367.905 264.643L371.307 264.462L374.679 264.203L378.02 263.866L381.327 263.451L384.597 262.959L387.831 262.39L391.024 261.746L394.176 261.026L397.284 260.232L400.346 259.362L403.36 258.42L406.325 257.404L409.239 256.317L412.101 255.157L414.906 253.928L417.657 252.629L420.349 251.263L422.982 249.829L425.554 248.327L428.063 246.761L430.508 245.13L432.888 243.437L435.201 241.681L437.447 239.866L439.624 237.991L441.731 236.056L443.765 234.067L445.728 232.021L447.616 229.922L449.429 227.769L451.168 225.565L452.83 223.313L454.416 221.011L455.923 218.663L457.351 216.27L458.7 213.834L459.969 211.355L461.157 208.834L462.264 206.277L463.29 203.681L464.233 201.05L465.095 198.385L465.873 195.687L466.569 192.96L467.181 190.202L467.71 187.418L468.155 184.608L468.517 181.775L468.796 178.919L468.991 176.043L469.102 173.148L469.13 170.236L469.075 167.308L468.936 164.367L468.715 161.415L468.411 158.452L468.027 155.482L467.559 152.504L467.011 149.522L466.381 146.536L465.671 143.549L464.882 140.561L464.012 137.577L463.065 134.595L462.041 131.619L460.939 128.65L459.76 125.689L458.506 122.739L457.177 119.801L455.774 116.876L454.299 113.966L452.751 111.074L451.132 108.199L449.443 105.344L447.686 102.511L445.86 99.7008L443.967 96.9156L442.009 94.1566L439.985 91.4248L437.898 88.7224L435.751 86.0495L433.541 83.4092L431.272 80.8027L428.945 78.2311L426.559 75.6954L424.119 73.1968L421.625 70.7385L419.078 68.3195L416.48 65.9418L413.832 63.6066Z" fill="#F7FBFA"/>
<path d="M424.304 63.3179L420.927 60.451L417.491 57.6418L414 54.8915L410.453 52.2L406.855 49.5706L403.206 47.0023L399.508 44.4993L395.764 42.0606L391.974 39.6895L388.141 37.3849L384.269 35.1511L380.358 32.9859L376.41 30.8926L372.427 28.8724L368.413 26.9252L364.368 25.052L360.295 23.2551L356.197 21.5356L352.074 19.8935L347.93 18.3298L343.767 16.8446L339.587 15.4411L335.392 14.1172L331.184 12.8761L326.966 11.7178L322.739 10.6433L318.507 9.65175L314.272 8.7462L310.035 7.9246L305.798 7.18909L301.566 6.53963L297.338 5.97738L293.119 5.50228L288.91 5.11543L284.713 4.81578L280.531 4.60438L276.366 4.48234L272.221 4.44855L268.097 4.50306L263.998 4.64688L259.923 4.88006L255.879 5.20262L251.865 5.61451L247.885 6.11468L243.939 6.70527L240.031 7.38412L236.163 8.15126L232.338 9.00665L228.557 9.9514L224.823 10.9833L221.138 12.1035L217.505 13.3108L213.923 14.6043L210.398 15.9838L206.931 17.4494L203.522 19L200.177 20.6345L196.895 22.3529L193.679 24.1541L190.531 26.0371L187.454 28.0017L184.448 30.0459L181.515 32.1697L178.659 34.3719L175.882 36.6515L173.183 39.0063L170.566 41.4373L168.033 43.9414L165.584 46.5185L163.222 49.1653L160.948 51.8829L158.764 54.6681L156.672 57.5208L154.673 60.439L152.769 63.4203L150.961 66.4649L149.25 69.5693L147.637 72.7315L146.125 75.9526L144.713 79.227L143.404 82.556L142.199 85.9361L141.098 89.3664L140.103 92.8446L139.214 96.3675L138.433 99.934L137.76 103.542L137.194 107.189L136.74 110.873L136.394 114.592L136.16 118.344L136.037 122.126L136.025 125.937L136.125 129.772L136.337 133.632L136.66 137.511L137.096 141.41L137.644 145.325L138.306 149.252L139.078 153.192L139.963 157.139L140.959 161.093L142.066 165.05L143.283 169.008L144.61 172.964L146.048 176.916L147.594 180.86L149.248 184.795L151.01 188.718L152.877 192.627L154.849 196.518L156.926 200.388L159.105 204.237L161.386 208.06L163.768 211.855L166.248 215.621L168.825 219.353L171.498 223.049L174.266 226.708L177.125 230.326L180.075 233.901L183.114 237.432L186.24 240.913L189.451 244.344L192.744 247.723L196.118 251.048L199.57 254.315L203.098 257.523L206.701 260.668L210.374 263.75L214.117 266.765L217.925 269.713L221.798 272.591L225.733 275.397L229.725 278.128L233.775 280.784L237.876 283.362L242.029 285.861L246.228 288.278L250.474 290.613L254.761 292.863L259.087 295.027L263.448 297.105L267.843 299.094L272.268 300.992L276.721 302.8L281.197 304.514L285.694 306.135L290.21 307.662L294.739 309.094L299.281 310.428L303.832 311.666L308.389 312.807L312.947 313.848L317.506 314.79L322.061 315.633L326.609 316.375L331.147 317.018L335.674 317.559L340.185 317.999L344.677 318.339L349.146 318.577L353.592 318.714L358.011 318.75L362.399 318.685L366.754 318.519L371.074 318.254L375.354 317.888L379.593 317.423L383.788 316.859L387.935 316.195L392.035 315.434L396.081 314.577L400.073 313.623L404.009 312.574L407.885 311.43L411.699 310.192L415.448 308.863L419.133 307.441L422.748 305.928L426.293 304.327L429.764 302.638L433.162 300.863L436.483 299.003L439.725 297.058L442.886 295.031L445.966 292.924L448.961 290.737L451.872 288.473L454.695 286.132L457.43 283.717L460.075 281.231L462.627 278.672L465.087 276.044L467.454 273.349L469.725 270.589L471.899 267.766L473.977 264.88L475.957 261.935L477.836 258.932L479.617 255.874L481.296 252.762L482.873 249.598L484.348 246.383L485.721 243.123L486.991 239.816L488.157 236.466L489.218 233.074L490.176 229.644L491.028 226.176L491.775 222.674L492.417 219.138L492.954 215.573L493.387 211.979L493.714 208.358L493.936 204.714L494.054 201.048L494.066 197.362L493.974 193.659L493.778 189.939L493.478 186.207L493.076 182.464L492.571 178.713L491.964 174.953L491.256 171.191L490.446 167.425L489.535 163.659L488.526 159.894L487.418 156.134L486.211 152.379L484.909 148.632L483.51 144.896L482.017 141.171L480.429 137.462L478.748 133.768L476.975 130.093L475.112 126.437L473.16 122.804L471.12 119.195L468.993 115.611L466.779 112.057L464.481 108.531L462.1 105.038L459.639 101.578L457.097 98.1535L454.476 94.7657L451.779 91.4171L449.006 88.11L446.16 84.8443L443.24 81.6232L440.25 78.449L437.193 75.3206L434.066 72.2422L430.875 69.2152L427.62 66.2393L424.304 63.3179Z" fill="#F7FBFA"/>
<path d="M429.33 67.4836L425.869 64.4347L422.345 61.4436L421.687 60.8878L418.176 58.0165L414.607 55.2052L410.983 52.4549L407.304 49.7677L403.574 47.1438L399.795 44.5842L395.968 42.0922L392.096 39.6687L388.178 37.3139L384.221 35.03L380.223 32.818L376.189 30.679L372.118 28.614L368.015 26.6232L363.881 24.7098L359.718 22.8726L355.53 21.1149L351.316 19.4358L350.506 19.1263L346.182 17.4951L341.838 15.9456L337.476 14.481L333.098 13.0994L328.706 11.8037L324.304 10.5953L319.893 9.47295L318.423 9.11769L313.917 8.06291L309.408 7.09854L304.897 6.22353L300.386 5.44006L295.879 4.74815L293.951 4.46372L289.364 3.85242L284.784 3.33591L280.215 2.91532L273.388 2.42605L268.766 2.19068L264.161 2.05447L259.577 2.01523L257.068 2L252.429 2.05992L247.815 2.22011L245.167 2.36393L240.507 2.62873L235.878 2.99486L231.284 3.46231L228.438 3.77942L223.81 4.35804L219.22 5.03909L216.269 5.52832L211.654 6.32379L207.085 7.22494L204.044 7.88856L199.46 8.90739L194.926 10.0319L191.808 10.8731L187.27 12.1197L182.788 13.4709L179.61 14.4919L175.133 15.9674L170.719 17.5495L167.497 18.7504L163.096 20.4579L158.764 22.2711L155.512 23.6517L151.205 25.5924L147.982 27.1299L143.705 29.1981L139.506 31.3731L136.281 33.086L132.123 35.3885L128.944 37.254L124.833 39.6829L120.809 42.2186L117.653 44.2519L113.686 46.9139L110.595 49.0911L106.69 51.8774L102.88 54.7683L99.8358 57.1045L96.0983 60.1174L93.1365 62.5877L89.4774 65.7227L86.6051 68.3204L83.0299 71.5764L79.5614 74.9315L76.7664 77.6698L73.3907 81.1404L70.7003 83.9953L67.4214 87.5792L64.8411 90.5442L61.6648 94.2382L58.6071 98.027L56.1325 101.109L53.1849 105.003L50.8323 108.179L48.0003 112.174L45.7752 115.44L43.0641 119.533L40.9709 122.879L38.3818 127.064L35.9224 131.335L33.9643 134.76L31.6335 139.116L29.817 142.605L27.6192 147.042L25.9476 150.588L23.8859 155.101L22.3637 158.695L20.4415 163.28L18.6577 167.935L17.288 171.563L15.647 176.28L14.4331 179.938L12.9359 184.712L11.8778 188.391L10.5266 193.214L9.31928 198.098L8.42142 201.773L7.36221 206.696L6.62344 210.373L5.71248 215.33L5.1328 218.999L4.37108 223.984L3.75541 229.016L3.33808 232.641L2.87172 237.691L2.61453 241.288L2.29636 246.347L2.12417 251.443L2.02614 254.97L2 260.066L2.05773 263.543L2.17651 268.632L2.44241 273.748L2.65052 277.126L3.05801 282.224L3.96465 290.606L4.65547 295.696L5.15454 298.88L5.98164 303.934L6.94926 308.999L7.58122 312.041L8.67967 317.059L9.91639 322.08L10.6715 324.968L12.0325 329.933L13.5308 334.895L14.4004 337.612L16.0153 342.508L17.7653 347.393L18.7351 349.929L20.5941 354.739L22.5827 359.532L24.701 364.306L25.7319 366.582L27.9471 371.268L30.2877 375.927L33.8194 382.559L36.3692 387.09L39.0389 391.585L41.8262 396.042L42.9028 397.756L45.761 402.104L48.7315 406.408L51.8119 410.665L52.8711 412.081L56.0094 416.22L59.2522 420.306L62.5975 424.338L66.0441 428.311L69.5877 432.224L70.4834 433.199L74.0619 436.983L77.7319 440.701L81.4912 444.353L85.3378 447.934L89.2693 451.441L93.2826 454.874L97.3753 458.229L97.8995 458.646L101.993 461.863L106.159 464.998L110.395 468.05L114.697 471.017L119.063 473.898L123.489 476.689L127.973 479.389L132.512 481.995L137.101 484.507L141.74 486.923L146.423 489.241L151.149 491.459L155.913 493.576L160.712 495.591L161.338 495.849L166.258 497.796L171.206 499.634L176.181 501.364L181.178 502.986L186.194 504.497L191.226 505.897L196.27 507.185L197.563 507.497L202.703 508.692L207.848 509.773L212.995 510.737L218.14 511.584L223.28 512.314L225.036 512.555L230.251 513.179L235.454 513.683L240.639 514.069L242.665 514.179L247.911 514.448L253.134 514.596L258.33 514.622L260.602 514.584L265.842 514.488L271.049 514.269L276.217 513.928L278.711 513.727L283.909 513.258L289.06 512.667L294.163 511.954L296.854 511.573L301.97 510.728L307.03 509.759L309.83 509.201L314.891 508.1L319.887 506.877L322.781 506.137L327.766 504.779L332.681 503.301L335.651 502.379L340.542 500.764L345.356 499.03L348.385 497.924L353.164 496.055L356.192 494.782L360.929 492.778L365.577 490.657L368.635 489.203L373.23 486.949L377.732 484.582L380.801 482.947L385.239 480.449L388.276 478.655L392.643 476.03L396.905 473.293L399.927 471.325L404.108 468.465L407.078 466.345L411.171 463.362L415.154 460.275L418.082 457.991L421.968 454.788L424.825 452.361L428.609 449.045L431.389 446.48L435.067 443.053L438.622 439.531L441.327 436.823L444.768 433.198L447.379 430.365L450.7 426.64L453.21 423.686L456.409 419.867L459.476 415.962L461.882 412.89L464.822 408.897L467.114 405.719L469.922 401.646L472.092 398.368L474.765 394.217L476.812 390.847L479.346 386.624L481.745 382.331L483.657 378.881L485.915 374.524L487.692 370.999L489.806 366.584L491.445 362.991L493.414 358.525L494.91 354.87L496.735 350.359L498.42 345.791L499.764 342.101L501.302 337.496L502.495 333.764L503.889 329.128L504.931 325.36L506.177 320.701L507.284 315.997L508.166 312.228L509.128 307.508L509.854 303.726L510.672 298.996L511.242 295.206L511.919 290.473L512.457 285.707L512.866 281.954L513.266 277.195L513.517 273.453L513.779 268.705L513.906 263.932L514 260.253L513.992 255.501L513.93 251.854L513.793 247.128L513.524 242.385L513.31 238.826L512.915 234.119L512.55 230.61L512.032 225.943L511.389 221.267L510.881 217.872L510.122 213.244L509.238 208.614L508.594 205.345L507.602 200.771L506.488 196.197L505.716 193.068L504.499 188.559L503.165 184.055L502.276 181.077L500.847 176.645L499.304 172.225L498.306 169.411L496.675 165.067L494.935 160.738L493.838 158.1L492.017 153.856L490.092 149.63L486.909 143.046L484.811 138.933L482.612 134.846L481.39 132.663L479.132 128.674L476.778 124.713L474.331 120.784L470.598 115.054L468.013 111.262L465.34 107.507L462.581 103.791L461.403 102.247L458.612 98.6405L455.74 95.0751L452.787 91.5533L449.757 88.0772L446.649 84.6491L445.631 83.5377L442.51 80.224L439.319 76.9604L436.056 73.7481L432.726 70.5881L429.33 67.4836Z" fill="#F7FBFA"/>
<path d="M219.22 5.03909L214.673 5.82372L210.169 6.71176L205.715 7.7023L201.309 8.79523L196.956 9.99058L192.659 11.2873L188.419 12.6864L184.239 14.1858L180.123 15.7844L176.07 17.4842L172.086 19.2822L168.173 21.1782L164.332 23.1723L160.566 25.2634L156.878 27.4503L153.27 29.7321L149.744 32.1076L146.302 34.5757L142.946 37.1353L139.68 39.7854L136.505 42.5248L133.424 45.3525L130.438 48.2663L127.551 51.265L124.762 54.3477L122.074 57.5132L119.49 60.7582L117.012 64.0817L114.642 67.4837L112.381 70.9597L110.231 74.5098L108.194 78.1319L106.269 81.8226L104.462 85.5809L102.77 89.4056L101.198 93.2924L99.7466 97.2414L98.4172 101.249L97.2099 105.314L96.1257 109.433L95.1667 113.603L94.3342 117.823L93.627 122.09L93.0495 126.402L92.5995 130.755L92.2791 135.149L92.0895 139.577L92.0296 144.04L92.0993 148.535L92.302 153.057L92.6343 157.606L93.0996 162.176L93.6968 166.767L94.4257 171.374L95.2866 175.994L96.2782 180.626L97.4005 185.265L98.6548 189.909L100.039 194.555L101.552 199.201L103.195 203.84L104.968 208.473L106.868 213.095L108.893 217.703L111.044 222.295L113.32 226.866L115.717 231.414L118.237 235.937L120.878 240.429L123.638 244.89L126.514 249.314L129.507 253.701L132.611 258.046L135.828 262.347L139.154 266.599L142.588 270.801L146.127 274.95L149.77 279.042L153.513 283.073L157.355 287.044L161.292 290.949L165.322 294.787L169.442 298.555L173.65 302.249L177.943 305.868L182.318 309.407L186.773 312.867L191.304 316.243L195.906 319.534L200.579 322.737L205.318 325.85L210.12 328.871L214.982 331.797L219.902 334.627L224.874 337.357L229.895 339.989L234.963 342.518L240.075 344.944L245.225 347.265L250.411 349.478L255.628 351.583L260.874 353.578L266.145 355.462L271.437 357.234L276.747 358.892L282.07 360.438L287.403 361.866L292.743 363.179L298.086 364.376L303.427 365.453L308.765 366.413L314.093 367.256L319.411 367.978L324.713 368.583L329.996 369.067L335.257 369.432L340.491 369.677L345.697 369.801L350.868 369.808L356.005 369.694L361.101 369.462L366.154 369.112L371.161 368.645L376.119 368.06L381.024 367.358L385.873 366.541L390.662 365.608L395.39 364.561L400.054 363.402L404.65 362.13L409.174 360.747L413.627 359.255L418.001 357.655L422.298 355.947L426.514 354.134L430.646 352.216L434.693 350.197L438.651 348.076L442.518 345.857L446.293 343.539L449.971 341.127L453.553 338.619L457.037 336.02L460.419 333.331L463.699 330.553L466.875 327.691L469.945 324.744L472.907 321.716L475.761 318.607L478.503 315.421L481.134 312.16L483.652 308.825L486.056 305.42L488.345 301.947L490.519 298.408L492.574 294.806L494.513 291.141L496.331 287.418L498.031 283.639L499.611 279.805L501.07 275.921L502.409 271.987L503.627 268.006L504.723 263.982L505.696 259.917L506.548 255.812L507.277 251.67L507.884 247.495L508.37 243.288L508.734 239.053L508.976 234.791L509.096 230.506L509.095 226.199L508.973 221.873L508.73 217.531L508.368 213.176L507.886 208.809L507.287 204.433L506.569 200.052L505.733 195.667L504.78 191.28L503.714 186.894L502.53 182.512L501.235 178.135L499.826 173.768L498.306 169.411" fill="#F7FBFA"/>
<path d="M132.125 35.3886L128.049 37.7968L124.061 40.3096L120.161 42.9259L116.353 45.6435L112.638 48.4625L109.02 51.3828L105.503 54.4001L102.086 57.5154L98.7721 60.7267L95.5652 64.0317L92.4662 67.4292L89.4772 70.9183L86.6016 74.4957L83.8415 78.1603L81.1979 81.9109L78.6743 85.7444L76.2705 89.6606L73.9909 93.6554L71.8355 97.7274L69.8065 101.875L67.9061 106.095L66.1354 110.386L64.4977 114.745L62.9929 119.169L61.6221 123.657L60.3875 128.205L59.2902 132.812L58.3302 137.473L57.5107 142.187L56.8308 146.951L56.2936 151.762L55.8991 156.616L55.6474 161.512L55.5384 166.446L55.5744 171.415L55.7553 176.416L56.0811 181.444L56.5529 186.499L57.1697 191.577L57.9335 196.673L58.8423 201.785L59.896 206.909L61.0957 212.042L62.4393 217.182L63.9278 222.323L65.5601 227.463L67.3362 232.599L69.2552 237.727L71.3146 242.843L73.5158 247.945L75.8553 253.027L78.3332 258.088L80.9473 263.124L83.6965 268.13L86.5809 273.104L89.5971 278.041L92.744 282.94L96.0185 287.796L99.4194 292.606L102.944 297.367L106.592 302.074L110.36 306.725L114.244 311.317L118.244 315.844L122.357 320.306L126.578 324.699L130.906 329.019L135.339 333.265L139.872 337.432L144.503 341.516L149.229 345.516L154.047 349.429L158.952 353.251L163.943 356.981L169.014 360.615L174.164 364.152L179.388 367.588L184.683 370.92L190.044 374.147L195.469 377.267L200.953 380.275L206.492 383.173L212.084 385.957L217.723 388.625L223.406 391.175L229.128 393.606L234.887 395.916L240.676 398.103L246.494 400.166L252.336 402.104L258.196 403.916L264.073 405.601L269.959 407.156L275.854 408.582L281.751 409.878L287.647 411.043L293.539 412.076L299.421 412.976L305.29 413.745L311.142 414.382L316.973 414.884L322.778 415.255L328.555 415.491L334.297 415.594L340.004 415.565L345.67 415.404L351.292 415.111L356.865 414.687L362.388 414.132L367.855 413.447L373.263 412.633L378.609 411.689L383.889 410.619L389.1 409.423L394.239 408.101L399.304 406.656L404.289 405.089L409.192 403.4L414.011 401.591L418.743 399.665L423.384 397.622L427.933 395.464L432.386 393.193L436.741 390.812L440.996 388.322L445.147 385.724L449.194 383.022L453.132 380.216L456.961 377.309L460.678 374.304L464.283 371.201L467.771 368.006L471.143 364.719L474.396 361.342L477.528 357.879L480.537 354.33L483.424 350.7L486.186 346.991L488.822 343.205L491.331 339.344L493.714 335.412L495.966 331.411L498.088 327.344L500.079 323.213L501.939 319.022L503.668 314.772L505.264 310.467L506.727 306.11L508.057 301.702L509.253 297.248L510.315 292.75L511.243 288.209L512.036 283.63L512.697 279.016L513.223 274.367L513.616 269.689L513.876 264.984L514.002 260.254" fill="#F7FBFA"/>
<path d="M67.4214 87.5792L64.2589 91.2603L61.2133 95.0338L58.2887 98.8999L55.486 102.857L52.8076 106.9L50.2556 111.031L47.8322 115.245L45.5396 119.54L43.3787 123.915L41.352 128.367L39.4614 132.893L37.7103 137.492L36.0975 142.159L34.6255 146.893L33.2971 151.691L32.1116 156.55L31.0709 161.468L30.1763 166.441L29.4299 171.466L28.8317 176.541L28.3838 181.662L28.0863 186.827L27.9392 192.033L27.9436 197.275L28.1005 202.55L28.4099 207.856L28.872 213.19L29.4887 218.545L30.2581 223.922L31.181 229.316L32.2576 234.722L33.4867 240.137L34.8673 245.559L36.4016 250.984L38.0873 256.407L39.9245 261.825L41.912 267.234L44.0489 272.631L46.3339 278.013L48.7649 283.374L51.3431 288.712L54.0651 294.024L56.9299 299.304L59.9362 304.55L63.0832 309.757L66.3674 314.923L69.7879 320.044L73.3413 325.115L77.0266 330.134L80.8404 335.096L84.7818 339.999L88.8473 344.838L93.0349 349.61L97.3413 354.312L101.763 358.94L106.298 363.491L110.944 367.963L115.696 372.35L120.552 376.651L125.508 380.861L130.562 384.979L135.71 389.002L140.946 392.925L146.27 396.748L151.675 400.466L157.161 404.077L162.72 407.579L168.352 410.968L174.05 414.243L179.811 417.401L185.631 420.441L191.506 423.361L197.432 426.157L203.404 428.827L209.418 431.372L215.471 433.788L221.558 436.074L227.673 438.228L233.815 440.249L239.977 442.137L246.155 443.889L252.345 445.506L258.544 446.985L264.745 448.325L270.946 449.526L277.141 450.588L283.328 451.51L289.5 452.292L295.654 452.934L301.787 453.434L307.892 453.795L313.967 454.014L320.008 454.092L326.01 454.03L331.97 453.829L337.882 453.488L343.745 453.008L349.551 452.392L355.302 451.636L360.989 450.744L366.611 449.717L372.163 448.556L377.644 447.261L383.048 445.835L388.373 444.278L393.615 442.593L398.772 440.78L403.839 438.84L408.813 436.777L413.694 434.591L418.476 432.284L423.157 429.859L427.736 427.318L432.208 424.662L436.572 421.893L440.826 419.014L444.966 416.027L448.99 412.935L452.898 409.738L456.685 406.441L460.353 403.046L463.897 399.556L467.315 395.971L470.607 392.295L473.77 388.531L476.804 384.682L479.707 380.75L482.478 376.739L485.116 372.65L487.619 368.486L489.987 364.252L492.218 359.947L494.312 355.578L496.268 351.144L498.085 346.651L499.764 342.101" fill="#F7FBFA"/>
<path d="M23.8848 155.1L21.9605 159.689L20.1756 164.348L18.5302 169.079L17.0276 173.875L15.6677 178.738L14.4526 183.66L13.3826 188.642L12.4607 193.678L11.6871 198.768L11.0638 203.907L10.5908 209.094L10.2694 214.323L10.0994 219.591L10.0831 224.898L10.2193 230.237L10.5092 235.607L10.9537 241.004L11.5531 246.424L12.3071 251.865L13.2159 257.321L14.2794 262.79L15.4965 268.269L16.8673 273.752L18.3918 279.238L20.0699 284.722L21.8995 290.201L23.8815 295.67L26.0151 301.126L28.2969 306.565L30.7268 311.984L33.305 317.379L36.0281 322.747L38.8961 328.082L41.9068 333.382L45.0592 338.643L48.3501 343.861L51.7792 349.033L55.3414 354.154L59.0375 359.221L62.8644 364.232L66.8188 369.181L70.8996 374.065L75.1036 378.881L79.4274 383.626L83.8678 388.295L88.4237 392.887L93.0907 397.396L97.8656 401.821L102.745 406.157L107.727 410.402L112.807 414.553L117.982 418.605L123.248 422.558L128.601 426.408L134.038 430.152L139.555 433.787L145.147 437.312L150.813 440.722L156.546 444.016L162.343 447.193L168.202 450.248L174.114 453.181L180.079 455.989L186.091 458.671L192.146 461.224L198.24 463.646L204.369 465.937L210.529 468.094L216.712 470.117L222.919 472.004L229.142 473.755L235.378 475.367L241.622 476.84L247.87 478.173L254.119 479.365L260.361 480.415L266.596 481.325L272.816 482.092L279.02 482.718L285.2 483.201L291.356 483.541L297.481 483.739L303.57 483.793L309.622 483.707L315.631 483.479L321.594 483.11L327.505 482.601L333.364 481.953L339.163 481.165L344.9 480.24L350.572 479.178L356.174 477.979L361.704 476.646L367.157 475.181L372.531 473.583L377.822 471.855L383.026 469.998L388.141 468.014L393.163 465.905L398.091 463.672L402.92 461.317L407.648 458.843L412.272 456.252L416.791 453.544L421.199 450.724L425.497 447.792L429.68 444.751L433.748 441.604L437.698 438.352L441.528 434.999L445.235 431.547L448.82 427.998L452.278 424.355L455.609 420.621L458.81 416.798L461.881 412.89" fill="#F7FBFA"/>
<path d="M399.927 471.325L395.637 474.078L391.244 476.719L386.748 479.248L382.153 481.664L377.461 483.964L372.674 486.146L367.795 488.208L362.828 490.148L357.776 491.964L352.64 493.656L347.425 495.221L342.135 496.658L336.77 497.966L331.337 499.143L325.836 500.19L320.275 501.103L314.653 501.883L308.976 502.527L303.247 503.036L297.47 503.41L291.648 503.646L285.787 503.745L279.89 503.707L273.958 503.532L267.999 503.217L262.016 502.763L256.012 502.173L249.991 501.444L243.959 500.578L237.919 499.574L231.874 498.433L225.83 497.156L219.791 495.743L213.76 494.194L207.742 492.513L201.742 490.697L195.762 488.75L189.808 486.673L183.884 484.467L177.994 482.133L172.142 479.671L166.332 477.084L160.569 474.375L154.856 471.545L149.197 468.596L143.596 465.529L138.058 462.349L132.586 459.055L127.185 455.649L121.857 452.136L116.607 448.518L111.438 444.795L106.353 440.974L101.357 437.054L96.4538 433.04L91.644 428.933L86.9344 424.738L82.3252 420.456L77.8215 416.091L73.4258 411.648L69.1401 407.126L64.9678 402.532L60.9121 397.868L56.9751 393.137L53.1602 388.343L49.4695 383.488L45.9041 378.578L42.4684 373.614L39.1623 368.601L35.9881 363.543L32.949 358.441L30.0472 353.301L27.2828 348.126L24.6588 342.92L22.1744 337.685L19.8338 332.426L17.6359 327.147L15.5819 321.851L13.6739 316.541L11.913 311.221L10.2992 305.896L8.83357 300.568L7.51725 295.24L6.34916 289.917L5.3292 284.602L4.45967 279.299L3.73939 274.009L3.16842 268.74L2.74775 263.491L2.47534 258.267L2.35329 253.072L2.37837 247.91L2.55162 242.781L2.87172 237.691" fill="#F7FBFA"/>
<path d="M13.5308 334.895L15.1665 339.849L16.9372 344.794L18.843 349.725L20.8818 354.639L23.0535 359.533L25.3571 364.403L27.7914 369.246L30.3543 374.059L33.0447 378.839L35.8626 383.582L38.8036 388.284L41.8677 392.942L45.0528 397.555L48.3556 402.117L51.7761 406.626L55.3109 411.079L58.9581 415.471L62.7163 419.801L66.5814 424.066L70.551 428.262L74.6242 432.386L78.7954 436.436L83.0648 440.408L87.4278 444.299L91.8824 448.108L96.4252 451.831L101.053 455.465L105.763 459.008L110.551 462.458L115.414 465.813L120.349 469.068L125.354 472.223L130.423 475.275L135.553 478.222L140.743 481.062L145.985 483.793L151.28 486.414L156.621 488.922L162.005 491.316L167.429 493.594L172.889 495.755L178.38 497.796L183.9 499.718L189.445 501.518L195.01 503.196L200.591 504.751L206.185 506.181L211.787 507.486L217.396 508.664L223.004 509.717L228.611 510.641L234.21 511.438L239.8 512.108L245.375 512.65L250.932 513.064L256.468 513.348L261.978 513.505L267.459 513.534L272.907 513.433L278.319 513.207L283.691 512.854L289.02 512.373L294.301 511.767L299.533 511.036L304.71 510.181L309.83 509.201" fill="#F7FBFA"/>
<path d="M219.22 5.03909L223.81 4.35804L228.438 3.77942L231.284 3.46231L235.878 2.99486L240.507 2.62873L245.167 2.36393L247.815 2.22011L252.429 2.05992L257.068 2L259.577 2.01523L264.161 2.05447L268.766 2.19068L273.388 2.42605L280.215 2.91532L284.784 3.33591L289.364 3.85242L293.951 4.46372L295.879 4.74815L300.386 5.44006L304.897 6.22353L309.408 7.09854L313.917 8.06291L318.423 9.11769L319.893 9.47295L324.304 10.5953L328.706 11.8037L333.098 13.0994L337.476 14.481L341.838 15.9456L346.182 17.4951L350.506 19.1263L351.316 19.4358L355.53 21.1149L359.718 22.8726L363.881 24.7098L368.015 26.6232L372.118 28.614L376.189 30.679L380.223 32.818L384.221 35.03L388.178 37.3139L392.096 39.6687L395.968 42.0922L399.795 44.5842L403.574 47.1438L407.304 49.7677L410.983 52.4549L414.607 55.2052L418.176 58.0165L421.687 60.8878L422.345 61.4436L425.869 64.4347L429.33 67.4836L432.726 70.5881L436.056 73.7481L439.319 76.9604L442.51 80.224L445.631 83.5377L446.649 84.6491L449.757 88.0772L452.787 91.5533L455.74 95.0751L458.612 98.6405L461.403 102.247L462.581 103.791L465.34 107.507L468.013 111.262L470.598 115.054L474.331 120.784L476.778 124.713L479.132 128.674L481.39 132.663L482.612 134.846L484.811 138.933L486.909 143.046L490.092 149.63L492.017 153.856L493.838 158.1L494.935 160.738L496.675 165.067L498.306 169.411M219.22 5.03909L216.269 5.52832L211.654 6.32379L207.085 7.22494L204.044 7.88856L199.46 8.90739L194.926 10.0319L191.808 10.8731L187.27 12.1197L182.788 13.4709L179.61 14.4919L175.133 15.9674L170.719 17.5495L167.497 18.7504L163.096 20.4579L158.764 22.2711L155.512 23.6517L151.205 25.5924L147.982 27.1299L143.705 29.1981L139.506 31.3731L136.281 33.086L132.123 35.3885L128.944 37.254L124.833 39.6829L120.809 42.2186L117.653 44.2519L113.686 46.9139L110.595 49.0911L106.69 51.8774L102.88 54.7683L99.8358 57.1045L96.0983 60.1174L93.1365 62.5877L89.4774 65.7227L86.6051 68.3204L83.0299 71.5764L79.5614 74.9315L76.7664 77.6698L73.3907 81.1404L70.7003 83.9953L67.4214 87.5792M219.22 5.03909L214.673 5.82372L210.169 6.71176L205.715 7.7023L201.309 8.79523L196.956 9.99058L192.659 11.2873L188.419 12.6864L184.239 14.1858L180.123 15.7844L176.07 17.4842L172.086 19.2822L168.173 21.1782L164.332 23.1723L160.566 25.2634L156.878 27.4503L153.27 29.7321L149.744 32.1076L146.302 34.5757L142.946 37.1353L139.68 39.7854L136.505 42.5248L133.424 45.3525L130.438 48.2663L127.551 51.265L124.762 54.3477L122.074 57.5132L119.49 60.7582L117.012 64.0817L114.642 67.4837L112.381 70.9597L110.231 74.5098L108.194 78.1319L106.269 81.8226L104.462 85.5809L102.77 89.4056L101.198 93.2924L99.7466 97.2414L98.4172 101.249L97.2099 105.314L96.1257 109.433L95.1667 113.603L94.3342 117.823L93.627 122.09L93.0495 126.402L92.5995 130.755L92.2791 135.149L92.0895 139.577L92.0296 144.04L92.0993 148.535L92.302 153.057L92.6343 157.606L93.0996 162.176L93.6968 166.767L94.4257 171.374L95.2866 175.994L96.2782 180.626L97.4005 185.265L98.6548 189.909L100.039 194.555L101.552 199.201L103.195 203.84L104.968 208.473L106.868 213.095L108.893 217.703L111.044 222.295L113.32 226.866L115.717 231.414L118.237 235.937L120.878 240.429L123.638 244.89L126.514 249.314L129.507 253.701L132.611 258.046L135.828 262.347L139.154 266.599L142.588 270.801L146.127 274.95L149.77 279.042L153.513 283.073L157.355 287.044L161.292 290.949L165.322 294.787L169.442 298.555L173.65 302.249L177.943 305.868L182.318 309.407L186.773 312.867L191.304 316.243L195.906 319.534L200.579 322.737L205.318 325.85L210.12 328.871L214.982 331.797L219.902 334.627L224.874 337.357L229.895 339.989L234.963 342.518L240.075 344.944L245.225 347.265L250.411 349.478L255.628 351.583L260.874 353.578L266.145 355.462L271.437 357.234L276.747 358.892L282.07 360.438L287.403 361.866L292.743 363.179L298.086 364.376L303.427 365.453L308.765 366.413L314.093 367.256L319.411 367.978L324.713 368.583L329.996 369.067L335.257 369.432L340.491 369.677L345.697 369.801L350.868 369.808L356.005 369.694L361.101 369.462L366.154 369.112L371.161 368.645L376.119 368.06L381.024 367.358L385.873 366.541L390.662 365.608L395.39 364.561L400.054 363.402L404.65 362.13L409.174 360.747L413.627 359.255L418.001 357.655L422.298 355.947L426.514 354.134L430.646 352.216L434.693 350.197L438.651 348.076L442.518 345.857L446.293 343.539L449.971 341.127L453.553 338.619L457.037 336.02L460.419 333.331L463.699 330.553L466.875 327.691L469.945 324.744L472.907 321.716L475.761 318.607L478.503 315.421L481.134 312.16L483.652 308.825L486.056 305.42L488.345 301.947L490.519 298.408L492.574 294.806L494.513 291.141L496.331 287.418L498.031 283.639L499.611 279.805L501.07 275.921L502.409 271.987L503.627 268.006L504.723 263.982L505.696 259.917L506.548 255.812L507.277 251.67L507.884 247.495L508.37 243.288L508.734 239.053L508.976 234.791L509.096 230.506L509.095 226.199L508.973 221.873L508.73 217.531L508.368 213.176L507.886 208.809L507.287 204.433L506.569 200.052L505.733 195.667L504.78 191.28L503.714 186.894L502.53 182.512L501.235 178.135L499.826 173.768L498.306 169.411M67.4214 87.5792L64.8411 90.5442L61.6648 94.2382L58.6071 98.027L56.1325 101.109L53.1849 105.003L50.8323 108.179L48.0003 112.174L45.7752 115.44L43.0641 119.533L40.9709 122.879L38.3818 127.064L35.9224 131.335L33.9643 134.76L31.6335 139.116L29.817 142.605L27.6192 147.042L25.9476 150.588L23.8859 155.101L22.3637 158.695L20.4415 163.28L18.6577 167.935L17.288 171.563L15.647 176.28L14.4331 179.938L12.9359 184.712L11.8778 188.391L10.5266 193.214L9.31928 198.098L8.42142 201.773L7.36221 206.696L6.62344 210.373L5.71248 215.33L5.1328 218.999L4.37108 223.984L3.75541 229.016L3.33808 232.641L2.87172 237.691M67.4214 87.5792L64.2589 91.2603L61.2133 95.0338L58.2887 98.8999L55.486 102.857L52.8076 106.9L50.2556 111.031L47.8322 115.245L45.5396 119.54L43.3787 123.915L41.352 128.367L39.4614 132.893L37.7103 137.492L36.0975 142.159L34.6255 146.893L33.2971 151.691L32.1116 156.55L31.0709 161.468L30.1763 166.441L29.4299 171.466L28.8317 176.541L28.3838 181.662L28.0863 186.827L27.9392 192.033L27.9436 197.275L28.1005 202.55L28.4099 207.856L28.872 213.19L29.4887 218.545L30.2581 223.922L31.181 229.316L32.2576 234.722L33.4867 240.137L34.8673 245.559L36.4016 250.984L38.0873 256.407L39.9245 261.825L41.912 267.234L44.0489 272.631L46.3339 278.013L48.7649 283.374L51.3431 288.712L54.0651 294.024L56.9299 299.304L59.9362 304.55L63.0832 309.757L66.3674 314.923L69.7879 320.044L73.3413 325.115L77.0266 330.134L80.8404 335.096L84.7818 339.999L88.8473 344.838L93.0349 349.61L97.3413 354.312L101.763 358.94L106.298 363.491L110.944 367.963L115.696 372.35L120.552 376.651L125.508 380.861L130.562 384.979L135.71 389.002L140.946 392.925L146.27 396.748L151.675 400.466L157.161 404.077L162.72 407.579L168.352 410.968L174.05 414.243L179.811 417.401L185.631 420.441L191.506 423.361L197.432 426.157L203.404 428.827L209.418 431.372L215.471 433.788L221.558 436.074L227.673 438.228L233.815 440.249L239.977 442.137L246.155 443.889L252.345 445.506L258.544 446.985L264.745 448.325L270.946 449.526L277.141 450.588L283.328 451.51L289.5 452.292L295.654 452.934L301.787 453.434L307.892 453.795L313.967 454.014L320.008 454.092L326.01 454.03L331.97 453.829L337.882 453.488L343.745 453.008L349.551 452.392L355.302 451.636L360.989 450.744L366.611 449.717L372.163 448.556L377.644 447.261L383.048 445.835L388.373 444.278L393.615 442.593L398.772 440.78L403.839 438.84L408.813 436.777L413.694 434.591L418.476 432.284L423.157 429.859L427.736 427.318L432.208 424.662L436.572 421.893L440.826 419.014L444.966 416.027L448.99 412.935L452.898 409.738L456.685 406.441L460.353 403.046L463.897 399.556L467.315 395.971L470.607 392.295L473.77 388.531L476.804 384.682L479.707 380.75L482.478 376.739L485.116 372.65L487.619 368.486L489.987 364.252L492.218 359.947L494.312 355.578L496.268 351.144L498.085 346.651L499.764 342.101M2.87172 237.691L2.61453 241.288L2.29636 246.347L2.12417 251.443L2.02614 254.97L2 260.066L2.05773 263.543L2.17651 268.632L2.44241 273.748L2.65052 277.126L3.05801 282.224L3.96465 290.606L4.65547 295.696L5.15454 298.88L5.98164 303.934L6.94926 308.999L7.58122 312.041L8.67967 317.059L9.91639 322.08L10.6715 324.968L12.0325 329.933L13.5308 334.895M2.87172 237.691L2.55162 242.781L2.37837 247.91L2.35329 253.072L2.47534 258.267L2.74775 263.491L3.16842 268.74L3.73939 274.009L4.45967 279.299L5.3292 284.602L6.34916 289.917L7.51725 295.24L8.83357 300.568L10.2992 305.896L11.913 311.221L13.6739 316.541L15.5819 321.851L17.6359 327.147L19.8338 332.426L22.1744 337.685L24.6588 342.92L27.2828 348.126L30.0472 353.301L32.949 358.441L35.9881 363.543L39.1623 368.601L42.4684 373.614L45.9041 378.578L49.4695 383.488L53.1602 388.343L56.9751 393.137L60.9121 397.868L64.9678 402.532L69.1401 407.126L73.4258 411.648L77.8215 416.091L82.3252 420.456L86.9344 424.738L91.644 428.933L96.4538 433.04L101.357 437.054L106.353 440.974L111.438 444.795L116.607 448.518L121.857 452.136L127.185 455.649L132.586 459.055L138.058 462.349L143.596 465.529L149.197 468.596L154.856 471.545L160.569 474.375L166.332 477.084L172.142 479.671L177.994 482.133L183.884 484.467L189.808 486.673L195.762 488.75L201.742 490.697L207.742 492.513L213.76 494.194L219.791 495.743L225.83 497.156L231.874 498.433L237.919 499.574L243.959 500.578L249.991 501.444L256.012 502.173L262.016 502.763L267.999 503.217L273.958 503.532L279.89 503.707L285.787 503.745L291.648 503.646L297.47 503.41L303.247 503.036L308.976 502.527L314.653 501.883L320.275 501.103L325.836 500.19L331.337 499.143L336.77 497.966L342.135 496.658L347.425 495.221L352.64 493.656L357.776 491.964L362.828 490.148L367.795 488.208L372.674 486.146L377.461 483.964L382.153 481.664L386.748 479.248L391.244 476.719L395.637 474.078L399.927 471.325M13.5308 334.895L14.4004 337.612L16.0153 342.508L17.7653 347.393L18.7351 349.929L20.5941 354.739L22.5827 359.532L24.701 364.306L25.7319 366.582L27.9471 371.268L30.2877 375.927L33.8194 382.559L36.3692 387.09L39.0389 391.585L41.8262 396.042L42.9028 397.756L45.761 402.104L48.7315 406.408L51.8119 410.665L52.8711 412.081L56.0094 416.22L59.2522 420.306L62.5975 424.338L66.0441 428.311L69.5877 432.224L70.4834 433.199L74.0619 436.983L77.7319 440.701L81.4912 444.353L85.3378 447.934L89.2693 451.441L93.2826 454.874L97.3753 458.229L97.8995 458.646L101.993 461.863L106.159 464.998L110.395 468.05L114.697 471.017L119.063 473.898L123.489 476.689L127.973 479.389L132.512 481.995L137.101 484.507L141.74 486.923L146.423 489.241L151.149 491.459L155.913 493.576L160.712 495.591L161.338 495.849L166.258 497.796L171.206 499.634L176.181 501.364L181.178 502.986L186.194 504.497L191.226 505.897L196.27 507.185L197.563 507.497L202.703 508.692L207.848 509.773L212.995 510.737L218.14 511.584L223.28 512.314L225.036 512.555L230.251 513.179L235.454 513.683L240.639 514.069L242.665 514.179L247.911 514.448L253.134 514.596L258.33 514.622L260.602 514.584L265.842 514.488L271.049 514.269L276.217 513.928L278.711 513.727L283.909 513.258L289.06 512.667L294.163 511.954L296.854 511.573L301.97 510.728L307.03 509.759L309.83 509.201M13.5308 334.895L15.1665 339.849L16.9372 344.794L18.843 349.725L20.8818 354.639L23.0535 359.533L25.3571 364.403L27.7914 369.246L30.3543 374.059L33.0447 378.839L35.8626 383.582L38.8036 388.284L41.8677 392.942L45.0528 397.555L48.3556 402.117L51.7761 406.626L55.3109 411.079L58.9581 415.471L62.7163 419.801L66.5814 424.066L70.551 428.262L74.6242 432.386L78.7954 436.436L83.0648 440.408L87.4278 444.299L91.8824 448.108L96.4252 451.831L101.053 455.465L105.763 459.008L110.551 462.458L115.414 465.813L120.349 469.068L125.354 472.223L130.423 475.275L135.553 478.222L140.743 481.062L145.985 483.793L151.28 486.414L156.621 488.922L162.005 491.316L167.429 493.594L172.889 495.755L178.38 497.796L183.9 499.718L189.445 501.518L195.01 503.196L200.591 504.751L206.185 506.181L211.787 507.486L217.396 508.664L223.004 509.717L228.611 510.641L234.21 511.438L239.8 512.108L245.375 512.65L250.932 513.064L256.468 513.348L261.978 513.505L267.459 513.534L272.907 513.433L278.319 513.207L283.691 512.854L289.02 512.373L294.301 511.767L299.533 511.036L304.71 510.181L309.83 509.201M309.83 509.201L314.891 508.1L319.887 506.877L322.781 506.137L327.766 504.779L332.681 503.301L335.651 502.379L340.542 500.764L345.356 499.03L348.385 497.924L353.164 496.055L356.192 494.782L360.929 492.778L365.577 490.657L368.635 489.203L373.23 486.949L377.732 484.582L380.801 482.947L385.239 480.449L388.276 478.655L392.643 476.03L396.905 473.293L399.927 471.325M399.927 471.325L404.108 468.465L407.078 466.345L411.171 463.362L415.154 460.275L418.082 457.991L421.968 454.788L424.825 452.361L428.609 449.045L431.389 446.48L435.067 443.053L438.622 439.531L441.327 436.823L444.768 433.198L447.379 430.365L450.7 426.64L453.21 423.686L456.409 419.867L459.476 415.962L461.882 412.89L464.822 408.897L467.114 405.719L469.922 401.646L472.092 398.368L474.765 394.217L476.812 390.847L479.346 386.624L481.745 382.331L483.657 378.881L485.915 374.524L487.692 370.999L489.806 366.584L491.445 362.991L493.414 358.525L494.91 354.87L496.735 350.359L498.42 345.791L499.764 342.101M499.764 342.101L501.302 337.496L502.495 333.764L503.889 329.128L504.931 325.36L506.177 320.701L507.284 315.997L508.166 312.228L509.128 307.508L509.854 303.726L510.672 298.996L511.242 295.206L511.919 290.473L512.457 285.707L512.866 281.954L513.266 277.195L513.517 273.453L513.779 268.705L513.906 263.932L514 260.253L513.992 255.501L513.93 251.854L513.793 247.128L513.524 242.385L513.31 238.826L512.915 234.119L512.55 230.61L512.032 225.943L511.389 221.267L510.881 217.872L510.122 213.244L509.238 208.614L508.594 205.345L507.602 200.771L506.488 196.197L505.716 193.068L504.499 188.559L503.165 184.055L502.276 181.077L500.847 176.645L499.304 172.225L498.306 169.411M132.125 35.3886L128.049 37.7968L124.061 40.3096L120.161 42.9259L116.353 45.6435L112.638 48.4625L109.02 51.3828L105.503 54.4001L102.086 57.5154L98.7721 60.7267L95.5652 64.0317L92.4662 67.4292L89.4772 70.9183L86.6016 74.4957L83.8415 78.1603L81.1979 81.9109L78.6743 85.7444L76.2705 89.6606L73.9909 93.6554L71.8355 97.7274L69.8065 101.875L67.9061 106.095L66.1354 110.386L64.4977 114.745L62.9929 119.169L61.6221 123.657L60.3875 128.205L59.2902 132.812L58.3302 137.473L57.5107 142.187L56.8308 146.951L56.2936 151.762L55.8991 156.616L55.6474 161.512L55.5384 166.446L55.5744 171.415L55.7553 176.416L56.0811 181.444L56.5529 186.499L57.1697 191.577L57.9335 196.673L58.8423 201.785L59.896 206.909L61.0957 212.042L62.4393 217.182L63.9278 222.323L65.5601 227.463L67.3362 232.599L69.2552 237.727L71.3146 242.843L73.5158 247.945L75.8553 253.027L78.3332 258.088L80.9473 263.124L83.6965 268.13L86.5809 273.104L89.5971 278.041L92.744 282.94L96.0185 287.796L99.4194 292.606L102.944 297.367L106.592 302.074L110.36 306.725L114.244 311.317L118.244 315.844L122.357 320.306L126.578 324.699L130.906 329.019L135.339 333.265L139.872 337.432L144.503 341.516L149.229 345.516L154.047 349.429L158.952 353.251L163.943 356.981L169.014 360.615L174.164 364.152L179.388 367.588L184.683 370.92L190.044 374.147L195.469 377.267L200.953 380.275L206.492 383.173L212.084 385.957L217.723 388.625L223.406 391.175L229.128 393.606L234.887 395.916L240.676 398.103L246.494 400.166L252.336 402.104L258.196 403.916L264.073 405.601L269.959 407.156L275.854 408.582L281.751 409.878L287.647 411.043L293.539 412.076L299.421 412.976L305.29 413.745L311.142 414.382L316.973 414.884L322.778 415.255L328.555 415.491L334.297 415.594L340.004 415.565L345.67 415.404L351.292 415.111L356.865 414.687L362.388 414.132L367.855 413.447L373.263 412.633L378.609 411.689L383.889 410.619L389.1 409.423L394.239 408.101L399.304 406.656L404.289 405.089L409.192 403.4L414.011 401.591L418.743 399.665L423.384 397.622L427.933 395.464L432.386 393.193L436.741 390.812L440.996 388.322L445.147 385.724L449.194 383.022L453.132 380.216L456.961 377.309L460.678 374.304L464.283 371.201L467.771 368.006L471.143 364.719L474.396 361.342L477.528 357.879L480.537 354.33L483.424 350.7L486.186 346.991L488.822 343.205L491.331 339.344L493.714 335.412L495.966 331.411L498.088 327.344L500.079 323.213L501.939 319.022L503.668 314.772L505.264 310.467L506.727 306.11L508.057 301.702L509.253 297.248L510.315 292.75L511.243 288.209L512.036 283.63L512.697 279.016L513.223 274.367L513.616 269.689L513.876 264.984L514.002 260.254M23.8848 155.1L21.9605 159.689L20.1756 164.348L18.5302 169.079L17.0276 173.875L15.6677 178.738L14.4526 183.66L13.3826 188.642L12.4607 193.678L11.6871 198.768L11.0638 203.907L10.5908 209.094L10.2694 214.323L10.0994 219.591L10.0831 224.898L10.2193 230.237L10.5092 235.607L10.9537 241.004L11.5531 246.424L12.3071 251.865L13.2159 257.321L14.2794 262.79L15.4965 268.269L16.8673 273.752L18.3918 279.238L20.0699 284.722L21.8995 290.201L23.8815 295.67L26.0151 301.126L28.2969 306.565L30.7268 311.984L33.305 317.379L36.0281 322.747L38.8961 328.082L41.9068 333.382L45.0592 338.643L48.3501 343.861L51.7792 349.033L55.3414 354.154L59.0375 359.221L62.8644 364.232L66.8188 369.181L70.8996 374.065L75.1036 378.881L79.4274 383.626L83.8678 388.295L88.4237 392.887L93.0907 397.396L97.8656 401.821L102.745 406.157L107.727 410.402L112.807 414.553L117.982 418.605L123.248 422.558L128.601 426.408L134.038 430.152L139.555 433.787L145.147 437.312L150.813 440.722L156.546 444.016L162.343 447.193L168.202 450.248L174.114 453.181L180.079 455.989L186.091 458.671L192.146 461.224L198.24 463.646L204.369 465.937L210.529 468.094L216.712 470.117L222.919 472.004L229.142 473.755L235.378 475.367L241.622 476.84L247.87 478.173L254.119 479.365L260.361 480.415L266.596 481.325L272.816 482.092L279.02 482.718L285.2 483.201L291.356 483.541L297.481 483.739L303.57 483.793L309.622 483.707L315.631 483.479L321.594 483.11L327.505 482.601L333.364 481.953L339.163 481.165L344.9 480.24L350.572 479.178L356.174 477.979L361.704 476.646L367.157 475.181L372.531 473.583L377.822 471.855L383.026 469.998L388.141 468.014L393.163 465.905L398.091 463.672L402.92 461.317L407.648 458.843L412.272 456.252L416.791 453.544L421.199 450.724L425.497 447.792L429.68 444.751L433.748 441.604L437.698 438.352L441.528 434.999L445.235 431.547L448.82 427.998L452.278 424.355L455.609 420.621L458.81 416.798L461.881 412.89M396.74 71.743L394.854 70.1379L392.935 68.5655L390.984 67.0247L389.002 65.5188L386.989 64.0456L384.948 62.6083L382.879 61.207L380.784 59.8416L378.664 58.5133L376.518 57.2242L374.351 55.9744L372.162 54.7627L369.952 53.5924L367.724 52.4624L365.477 51.3749L363.214 50.3288L360.935 49.3252L358.642 48.3663L356.336 47.4499L354.019 46.5793L351.691 45.7533L349.355 44.972L347.01 44.2365L344.66 43.5478L342.305 42.906L339.946 42.3121L337.585 41.7651L335.222 41.2661L332.861 40.8149L330.501 40.4128L328.144 40.0587L325.791 39.7536L323.444 39.4975L321.103 39.2916L318.773 39.1346L316.45 39.0279L314.14 38.9712L311.842 38.9636L309.557 39.0061L307.289 39.0987L305.035 39.2415L302.8 39.4332L300.584 39.6762L298.388 39.9683L296.214 40.3104L294.062 40.7016L291.935 41.1418L289.833 41.6311L287.757 42.1705L285.711 42.7578L283.693 43.3941L281.704 44.0785L279.748 44.8107L277.825 45.5898L275.934 46.4158L274.08 47.2886L272.261 48.2083L270.481 49.1727L268.737 50.1839L267.034 51.2387L265.371 52.3371L263.751 53.4801L262.172 54.6657L260.637 55.8937L259.146 57.1632L257.701 58.4741L256.303 59.8242L254.952 61.2146L253.65 62.6442L252.397 64.1109L251.192 65.6147L250.04 67.1554L248.938 68.7311L247.889 70.3416L246.893 71.986L245.951 73.663L245.063 75.3716L244.229 77.1107L243.453 78.8803L242.731 80.6772L242.066 82.5023L241.458 84.3548L240.908 86.2323L240.417 88.1348L239.983 90.0592L239.609 92.0075L239.293 93.9755L239.037 95.963L238.84 97.9702L238.704 99.9948L238.628 102.035L238.611 104.09L238.655 106.159L238.759 108.24L238.924 110.332L239.148 112.436L239.434 114.546L239.779 116.665L240.185 118.788L240.651 120.917L241.176 123.049L241.76 125.182L242.404 127.317L243.106 129.452L243.867 131.583L244.686 133.711L245.563 135.835L246.496 137.952L247.486 140.063L248.533 142.164L249.634 144.255L250.79 146.335L252.001 148.401L253.265 150.454L254.581 152.492L255.95 154.512L257.369 156.514L258.839 158.497L260.357 160.459L261.924 162.4L263.538 164.317L265.198 166.21L266.904 168.077L268.654 169.918L270.448 171.73L272.283 173.512L274.158 175.266L276.074 176.986L278.029 178.675L280.02 180.329L282.047 181.95L284.109 183.534L286.205 185.08L288.332 186.59L290.489 188.061L292.676 189.491L294.891 190.881L297.133 192.23L299.399 193.535L301.689 194.797L304.001 196.015L306.334 197.189L308.686 198.317L311.054 199.398L313.439 200.432L315.839 201.418L318.251 202.356L320.675 203.245L323.108 204.084L325.55 204.874L327.999 205.613L330.453 206.302L332.91 206.939L335.369 207.523L337.829 208.056L340.287 208.537L342.742 208.965L345.194 209.34L347.639 209.662L350.077 209.931L352.505 210.146L354.924 210.308L357.33 210.416L359.723 210.472L362.101 210.473L364.462 210.421L366.805 210.315L369.128 210.157L371.431 209.946L373.711 209.681L375.967 209.363L378.198 208.993L380.403 208.571L382.579 208.097L384.727 207.572L386.843 206.997L388.929 206.37L390.98 205.694L392.997 204.967L394.98 204.191L396.925 203.367L398.832 202.494L400.699 201.576L402.528 200.609L404.315 199.597L406.059 198.54L407.76 197.437L409.418 196.291L411.029 195.101L412.595 193.87L414.113 192.597L415.584 191.283L417.006 189.929L418.379 188.537L419.701 187.106L420.973 185.639L422.193 184.136L423.36 182.596L424.475 181.024L425.536 179.417L426.543 177.78L427.495 176.11L428.392 174.41L429.233 172.682L430.019 170.927L430.749 169.144L431.421 167.335L432.038 165.502L432.596 163.646L433.097 161.767L433.54 159.868L433.925 157.948L434.252 156.009L434.523 154.053L434.734 152.08L434.887 150.092L434.981 148.091L435.017 146.076L434.995 144.05L434.916 142.013L434.779 139.967L434.582 137.913L434.331 135.852L434.02 133.786L433.653 131.715L433.229 129.641L432.749 127.566L432.211 125.489L431.62 123.413L430.972 121.338L430.27 119.266L429.513 117.198L428.703 115.136L427.839 113.08L426.922 111.031L425.953 108.991L424.932 106.961L423.861 104.943L422.74 102.936L421.569 100.943L420.348 98.9629L419.08 97.0004L417.765 95.0531L416.402 93.1244L414.994 91.2142L413.541 89.3237L412.044 87.4549L410.504 85.6068L408.922 83.7827L407.297 81.9826L405.633 80.2075L403.929 78.4586L402.187 76.7369L400.407 75.0425L398.592 73.3775L396.74 71.743ZM373.498 86.0288L374.565 86.8701L375.659 87.683L376.726 88.5057L377.716 89.3763L378.594 90.3232L379.399 91.3246L380.189 92.3456L381.022 93.3536L381.932 94.3234L382.877 95.2736L383.793 96.2281L384.616 97.2132L385.304 98.2484L385.904 99.3195L386.482 100.408L387.109 101.491L387.827 102.557L388.587 103.608L389.316 104.66L389.942 105.723L390.414 106.808L390.784 107.91L391.131 109.024L391.527 110.143L392.026 111.263L392.572 112.379L393.087 113.49L393.489 114.591L393.726 115.684L393.854 116.776L393.952 117.873L394.103 118.987L394.363 120.119L394.673 121.258L394.951 122.386L395.115 123.485L395.107 124.545L394.985 125.584L394.831 126.624L394.731 127.688L394.739 128.791L394.8 129.91L394.83 131.013L394.747 132.068L394.494 133.056L394.125 134.001L393.724 134.943L393.373 135.917L393.128 136.948L392.935 138.005L392.715 139.041L392.387 140.012L391.896 140.888L391.293 141.704L390.659 142.51L390.069 143.356L389.579 144.276L389.139 145.229L388.674 146.16L388.111 147.009L387.4 147.739L386.586 148.392L385.74 149.029L384.934 149.714L384.215 150.487L383.541 151.3L382.848 152.088L382.071 152.781L381.165 153.335L380.17 153.799L379.145 154.242L378.153 154.737L377.232 155.332L376.349 155.974L375.454 156.587L374.49 157.096L373.424 157.452L372.286 157.706L371.121 157.936L369.979 158.222L368.891 158.613L367.833 159.056L366.767 159.471L365.654 159.776L364.47 159.918L363.232 159.951L361.972 159.957L360.725 160.019L359.511 160.193L358.318 160.42L357.123 160.62L355.905 160.708L354.647 160.629L353.357 160.438L352.054 160.218L350.75 160.054L349.457 160L348.176 160.002L346.898 159.978L345.621 159.844L344.339 159.547L343.051 159.138L341.754 158.7L340.445 158.314L339.125 158.035L337.805 157.812L336.495 157.564L335.21 157.214L333.956 156.708L332.719 156.097L331.48 155.456L330.218 154.864L328.924 154.372L327.616 153.93L326.326 153.469L325.084 152.916L323.907 152.222L322.772 151.431L321.64 150.613L320.478 149.838L319.258 149.15L318.016 148.51L316.797 147.854L315.646 147.12L314.595 146.265L313.606 145.326L312.628 144.363L311.609 143.435L310.514 142.58L309.386 141.766L308.285 140.942L307.273 140.056L306.388 139.074L305.585 138.025L304.8 136.954L303.965 135.909L303.038 134.922L302.069 133.969L301.13 133.01L300.295 132.007L299.611 130.937L299.027 129.818L298.464 128.684L297.846 127.565L297.123 126.484L296.35 125.428L295.609 124.373L294.985 123.295L294.528 122.18L294.184 121.036L293.866 119.88L293.49 118.731L292.997 117.601L292.45 116.485L291.937 115.377L291.545 114.268L291.334 113.15L291.242 112.025L291.181 110.894L291.059 109.76L290.817 108.624L290.515 107.494L290.246 106.376L290.102 105.278L290.143 104.202L290.307 103.14L290.503 102.077L290.638 101.002L290.654 99.9058L290.608 98.8063L290.593 97.7231L290.699 96.6782L290.989 95.6866L291.401 94.7266L291.846 93.7731L292.234 92.7979L292.503 91.7845L292.713 90.7569L292.951 89.7501L293.303 88.801L293.828 87.9292L294.471 87.1087L295.145 86.2991L295.767 85.4611L296.28 84.5676L296.735 83.6523L297.214 82.762L297.796 81.9426L298.536 81.2245L299.384 80.5729L300.261 79.9376L301.093 79.2664L301.826 78.5276L302.508 77.7594L303.209 77.0173L303.997 76.3591L304.922 75.8208L305.939 75.3621L306.986 74.923L307.994 74.4446L308.92 73.8867L309.799 73.2939L310.693 72.7284L311.656 72.2555L312.729 71.9155L313.879 71.6648L315.052 71.4371L316.199 71.1669L317.28 70.8116L318.324 70.415L319.375 70.0478L320.476 69.7764L321.657 69.6468L322.895 69.6119L324.151 69.6032L325.39 69.5498L326.585 69.4081L327.754 69.224L328.922 69.066L330.118 69.0061L331.362 69.09L332.641 69.2708L333.934 69.479L335.22 69.6446L336.484 69.7209L337.732 69.7547L338.973 69.8124L340.219 69.966L341.479 70.2592L342.752 70.6471L344.033 71.0633L345.318 71.4404L346.604 71.7324L347.883 71.9808L349.15 72.2533L350.4 72.6129L351.63 73.1032L352.85 73.684L354.071 74.292L355.308 74.8652L356.567 75.361L357.831 75.8165L359.076 76.2916L360.283 76.844L361.437 77.5142L362.559 78.265L363.675 79.0419L364.819 79.7894L366.003 80.4705L367.205 81.1166L368.384 81.7769L369.503 82.5027L370.538 83.3265L371.52 84.2189L372.492 85.1342L373.498 86.0288ZM413.832 63.6066L411.135 61.3162L408.391 59.0704L405.602 56.8725L402.767 54.7215L399.893 52.6184L396.976 50.5666L394.021 48.5649L391.029 46.6165L387.999 44.7205L384.936 42.879L381.84 41.093L378.714 39.3626L375.558 37.69L372.376 36.0751L369.167 34.5201L365.935 33.024L362.68 31.5889L359.404 30.2159L356.11 28.904L352.8 27.6563L349.474 26.4718L346.135 25.3528L342.785 24.298L339.425 23.3085L336.058 22.3856L332.684 21.5302L329.308 20.7424L325.927 20.0221L322.547 19.3694L319.169 18.7864L315.795 18.2721L312.425 17.8275L309.063 17.4537L305.71 17.1497L302.368 16.9155L299.038 16.7531L295.723 16.6605L292.424 16.6387L289.145 16.6888L285.885 16.8098L282.648 17.0026L279.435 17.2663L276.247 17.6009L273.087 18.0073L269.958 18.4846L266.859 19.0316L263.792 19.6505L260.762 20.3392L257.768 21.0987L254.812 21.9279L251.897 22.8269L249.024 23.7956L246.194 24.8319L243.411 25.9368L240.674 27.1104L237.986 28.3504L235.349 29.6569L232.763 31.0299L230.232 32.4694L227.756 33.972L225.337 35.5401L222.976 37.1702L220.674 38.8635L218.435 40.6179L216.259 42.4333L214.146 44.3075L212.101 46.2417L210.121 48.2336L208.211 50.2811L206.369 52.3852L204.598 54.5439L202.901 56.7548L201.276 59.0191L199.726 61.3336L198.252 63.6982L196.854 66.1107L195.534 68.5701L194.293 71.0752L193.132 73.624L192.051 76.2163L191.052 78.8489L190.134 81.5219L189.3 84.233L188.55 86.9811L187.884 89.763L187.302 92.5787L186.806 95.4271L186.396 98.3039L186.073 101.21L185.836 104.142L185.687 107.099L185.626 110.079L185.651 113.08L185.766 116.1L185.967 119.137L186.256 122.19L186.634 125.257L187.1 128.335L187.654 131.423L188.295 134.519L189.024 137.621L189.84 140.727L190.742 143.835L191.73 146.941L192.806 150.047L193.965 153.148L195.211 156.243L196.54 159.33L197.952 162.407L199.447 165.472L201.023 168.522L202.68 171.557L204.419 174.574L206.234 177.57L208.128 180.544L210.099 183.494L212.145 186.418L214.265 189.314L216.458 192.181L218.723 195.015L221.057 197.816L223.46 200.581L225.931 203.309L228.466 205.997L231.067 208.645L233.729 211.249L236.451 213.81L239.233 216.324L242.072 218.79L244.966 221.205L247.914 223.57L250.911 225.882L253.96 228.14L257.055 230.341L260.196 232.486L263.38 234.572L266.605 236.597L269.869 238.56L273.171 240.462L276.507 242.299L279.875 244.07L283.273 245.775L286.7 247.413L290.153 248.982L293.629 250.481L297.126 251.91L300.642 253.267L304.174 254.551L307.721 255.763L311.279 256.901L314.848 257.964L318.422 258.951L322.001 259.863L325.584 260.698L329.166 261.457L332.745 262.138L336.321 262.741L339.888 263.267L343.447 263.714L346.995 264.083L350.528 264.374L354.044 264.584L357.543 264.717L361.02 264.771L364.474 264.746L367.905 264.643L371.307 264.462L374.679 264.203L378.02 263.866L381.327 263.451L384.597 262.959L387.831 262.39L391.024 261.746L394.176 261.026L397.284 260.232L400.346 259.362L403.36 258.42L406.325 257.404L409.239 256.317L412.101 255.157L414.906 253.928L417.657 252.629L420.349 251.263L422.982 249.829L425.554 248.327L428.063 246.761L430.508 245.13L432.888 243.437L435.201 241.681L437.447 239.866L439.624 237.991L441.731 236.056L443.765 234.067L445.728 232.021L447.616 229.922L449.429 227.769L451.168 225.565L452.83 223.313L454.416 221.011L455.923 218.663L457.351 216.27L458.7 213.834L459.969 211.355L461.157 208.834L462.264 206.277L463.29 203.681L464.233 201.05L465.095 198.385L465.873 195.687L466.569 192.96L467.181 190.202L467.71 187.418L468.155 184.608L468.517 181.775L468.796 178.919L468.991 176.043L469.102 173.148L469.13 170.236L469.075 167.308L468.936 164.367L468.715 161.415L468.411 158.452L468.027 155.482L467.559 152.504L467.011 149.522L466.381 146.536L465.671 143.549L464.882 140.561L464.012 137.577L463.065 134.595L462.041 131.619L460.939 128.65L459.76 125.689L458.506 122.739L457.177 119.801L455.774 116.876L454.299 113.966L452.751 111.074L451.132 108.199L449.443 105.344L447.686 102.511L445.86 99.7008L443.967 96.9156L442.009 94.1566L439.985 91.4248L437.898 88.7224L435.751 86.0495L433.541 83.4092L431.272 80.8027L428.945 78.2311L426.559 75.6954L424.119 73.1968L421.625 70.7385L419.078 68.3195L416.48 65.9418L413.832 63.6066ZM424.304 63.3179L420.927 60.451L417.491 57.6418L414 54.8915L410.453 52.2L406.855 49.5706L403.206 47.0023L399.508 44.4993L395.764 42.0606L391.974 39.6895L388.141 37.3849L384.269 35.1511L380.358 32.9859L376.41 30.8926L372.427 28.8724L368.413 26.9252L364.368 25.052L360.295 23.2551L356.197 21.5356L352.074 19.8935L347.93 18.3298L343.767 16.8446L339.587 15.4411L335.392 14.1172L331.184 12.8761L326.966 11.7178L322.739 10.6433L318.507 9.65175L314.272 8.7462L310.035 7.9246L305.798 7.18909L301.566 6.53963L297.338 5.97738L293.119 5.50228L288.91 5.11543L284.713 4.81578L280.531 4.60438L276.366 4.48234L272.221 4.44855L268.097 4.50306L263.998 4.64688L259.923 4.88006L255.879 5.20262L251.865 5.61451L247.885 6.11468L243.939 6.70527L240.031 7.38412L236.163 8.15126L232.338 9.00665L228.557 9.9514L224.823 10.9833L221.138 12.1035L217.505 13.3108L213.923 14.6043L210.398 15.9838L206.931 17.4494L203.522 19L200.177 20.6345L196.895 22.3529L193.679 24.1541L190.531 26.0371L187.454 28.0017L184.448 30.0459L181.515 32.1697L178.659 34.3719L175.882 36.6515L173.183 39.0063L170.566 41.4373L168.033 43.9414L165.584 46.5185L163.222 49.1653L160.948 51.8829L158.764 54.6681L156.672 57.5208L154.673 60.439L152.769 63.4203L150.961 66.4649L149.25 69.5693L147.637 72.7315L146.125 75.9526L144.713 79.227L143.404 82.556L142.199 85.9361L141.098 89.3664L140.103 92.8446L139.214 96.3675L138.433 99.934L137.76 103.542L137.194 107.189L136.74 110.873L136.394 114.592L136.16 118.344L136.037 122.126L136.025 125.937L136.125 129.772L136.337 133.632L136.66 137.511L137.096 141.41L137.644 145.325L138.306 149.252L139.078 153.192L139.963 157.139L140.959 161.093L142.066 165.05L143.283 169.008L144.61 172.964L146.048 176.916L147.594 180.86L149.248 184.795L151.01 188.718L152.877 192.627L154.849 196.518L156.926 200.388L159.105 204.237L161.386 208.06L163.768 211.855L166.248 215.621L168.825 219.353L171.498 223.049L174.266 226.708L177.125 230.326L180.075 233.901L183.114 237.432L186.24 240.913L189.451 244.344L192.744 247.723L196.118 251.048L199.57 254.315L203.098 257.523L206.701 260.668L210.374 263.75L214.117 266.765L217.925 269.713L221.798 272.591L225.733 275.397L229.725 278.128L233.775 280.784L237.876 283.362L242.029 285.861L246.228 288.278L250.474 290.613L254.761 292.863L259.087 295.027L263.448 297.105L267.843 299.094L272.268 300.992L276.721 302.8L281.197 304.514L285.694 306.135L290.21 307.662L294.739 309.094L299.281 310.428L303.832 311.666L308.389 312.807L312.947 313.848L317.506 314.79L322.061 315.633L326.609 316.375L331.147 317.018L335.674 317.559L340.185 317.999L344.677 318.339L349.146 318.577L353.592 318.714L358.011 318.75L362.399 318.685L366.754 318.519L371.074 318.254L375.354 317.888L379.593 317.423L383.788 316.859L387.935 316.195L392.035 315.434L396.081 314.577L400.073 313.623L404.009 312.574L407.885 311.43L411.699 310.192L415.448 308.863L419.133 307.441L422.748 305.928L426.293 304.327L429.764 302.638L433.162 300.863L436.483 299.003L439.725 297.058L442.886 295.031L445.966 292.924L448.961 290.737L451.872 288.473L454.695 286.132L457.43 283.717L460.075 281.231L462.627 278.672L465.087 276.044L467.454 273.349L469.725 270.589L471.899 267.766L473.977 264.88L475.957 261.935L477.836 258.932L479.617 255.874L481.296 252.762L482.873 249.598L484.348 246.383L485.721 243.123L486.991 239.816L488.157 236.466L489.218 233.074L490.176 229.644L491.028 226.176L491.775 222.674L492.417 219.138L492.954 215.573L493.387 211.979L493.714 208.358L493.936 204.714L494.054 201.048L494.066 197.362L493.974 193.659L493.778 189.939L493.478 186.207L493.076 182.464L492.571 178.713L491.964 174.953L491.256 171.191L490.446 167.425L489.535 163.659L488.526 159.894L487.418 156.134L486.211 152.379L484.909 148.632L483.51 144.896L482.017 141.171L480.429 137.462L478.748 133.768L476.975 130.093L475.112 126.437L473.16 122.804L471.12 119.195L468.993 115.611L466.779 112.057L464.481 108.531L462.1 105.038L459.639 101.578L457.097 98.1535L454.476 94.7657L451.779 91.4171L449.006 88.11L446.16 84.8443L443.24 81.6232L440.25 78.449L437.193 75.3206L434.066 72.2422L430.875 69.2152L427.62 66.2393L424.304 63.3179Z" stroke="url(#paint0_angular_26_30560)" stroke-width="3" stroke-linecap="round" stroke-linejoin="round"/>
<defs>
<radialGradient id="paint0_angular_26_30560" cx="0" cy="0" r="1" gradientUnits="userSpaceOnUse" gradientTransform="translate(258.001 258.311) rotate(90) scale(256.311 256.001)">
<stop offset="0.0993526" stop-color="#FFC876"/>
<stop offset="0.427081" stop-color="#79FFF7"/>
<stop offset="0.718753" stop-color="#9F53FF"/>
<stop offset="1" stop-color="#FF98E2"/>
</radialGradient>
</defs>
</svg>
