<?xml version="1.0" standalone="no"?>
<!DOCTYPE svg PUBLIC "-//W3C//DTD SVG 20010904//EN"
 "http://www.w3.org/TR/2001/REC-SVG-20010904/DTD/svg10.dtd">
<svg version="1.0" xmlns="http://www.w3.org/2000/svg"
 width="350.000000pt" height="350.000000pt" viewBox="0 0 350.000000 350.000000"
 preserveAspectRatio="xMidYMid meet">
<metadata>
Created by potrace 1.14, written by Peter Selinger 2001-2017
</metadata>
<g transform="translate(0.000000,350.000000) scale(0.100000,-0.100000)"
fill="#000000" stroke="none">
<path d="M2666 2334 c-261 -63 -436 -327 -453 -684 -8 -188 26 -293 126 -383
136 -123 398 -144 583 -45 69 36 170 140 215 218 69 124 114 301 115 457 0
184 -56 301 -185 384 -99 64 -264 86 -401 53z m168 -318 c37 -36 50 -117 37
-225 -25 -202 -111 -335 -206 -317 -62 12 -88 65 -87 181 1 147 51 296 119
356 44 38 103 40 137 5z"/>
<path d="M435 2298 c-3 -13 -46 -255 -95 -538 -50 -283 -93 -527 -96 -542 l-6
-28 180 0 179 0 34 203 c34 196 36 202 59 202 21 0 30 -18 99 -202 l76 -203
207 0 207 0 -28 63 c-16 34 -65 137 -108 228 l-80 165 50 23 c66 31 132 98
165 169 23 50 27 70 27 157 0 92 -2 104 -30 155 -35 63 -90 109 -172 141 -55
22 -73 23 -360 27 l-302 4 -6 -24z m472 -294 c53 -39 39 -124 -24 -151 -46
-18 -177 -18 -170 1 3 8 11 51 18 96 l13 82 68 -4 c48 -3 75 -10 95 -24z"/>
<path d="M1590 2211 c-112 -60 -206 -113 -208 -119 -3 -10 97 -272 104 -272 3
0 51 25 109 55 80 43 102 52 99 38 -7 -33 -124 -703 -124 -713 0 -6 69 -10
184 -10 l185 0 10 53 c6 28 49 273 96 542 48 270 89 500 92 513 l5 22 -173 0
-174 0 -205 -109z"/>
</g>
</svg>
